<svg width="328" height="74" viewBox="0 0 328 74" fill="none" xmlns="http://www.w3.org/2000/svg">
<path d="M27.9717 10.6623C28.95 11.4484 29.4653 12.5216 29.5889 13.7304C29.6205 14.7287 29.3515 15.7237 28.7254 16.5267C28.6812 16.5837 28.637 16.6408 28.5914 16.6995C27.8709 17.5532 26.8237 18.0862 25.6894 18.2253C24.3601 18.3114 23.1487 17.9922 22.121 17.1586C21.3073 16.4108 20.7645 15.3988 20.6965 14.3118C20.6793 12.9936 21.0523 11.8548 22.0228 10.8851C23.7238 9.40029 26.1497 9.38527 27.9717 10.6623Z" fill="#F94D6F"/>
<path d="M5.70191 16.2838C6.35886 16.8335 6.69841 17.4379 6.78772 18.2656C6.82937 19.1475 6.59402 19.8305 5.9671 20.4938C5.31034 21.0822 4.55278 21.3356 3.66172 21.3204C2.64937 21.2286 1.99711 20.7416 1.36393 20.0097C0.95903 19.2486 0.850918 18.4755 1.07402 17.6438C1.31877 16.9516 1.84946 16.3735 2.51694 16.0232C3.59167 15.5406 4.72124 15.642 5.70191 16.2838Z" fill="#F84D6F"/>
<path d="M68.3944 0.000139558C68.4571 0.000537087 68.5197 0.000934615 68.5843 0.00134419C69.6571 0.023211 70.5261 0.444422 71.3082 1.13826C72.2152 2.0786 72.3819 3.15814 72.3398 4.38429C72.3141 4.71429 72.2127 4.98279 72.0735 5.28314C72.135 5.30493 72.1964 5.32671 72.2598 5.34916C72.49 5.4428 72.6806 5.54992 72.8882 5.68284C72.9616 5.7297 73.035 5.77655 73.1106 5.82483C73.1876 5.87463 73.2645 5.92443 73.3438 5.97575C73.4231 6.0268 73.5024 6.07785 73.5841 6.13045C74.1631 6.50548 74.7286 6.89135 75.2782 7.30534C75.3474 7.35706 75.4165 7.40878 75.4878 7.46206C75.7008 7.62349 75.9116 7.78729 76.1216 7.95245C76.2447 8.04926 76.2447 8.04926 76.3703 8.14803C77.5313 9.0711 78.6797 10.0597 79.662 11.1592C79.7909 11.3034 79.9214 11.4462 80.0527 11.5883C81.5009 13.1651 82.7038 14.9027 83.7668 16.7356C83.864 16.9029 83.9627 17.0692 84.0619 17.2353C84.762 18.4395 85.3368 19.7324 85.7358 21.0563C85.917 21.6415 86.1848 21.9378 86.6895 22.323C87.4273 22.9383 87.6837 23.8448 87.7832 24.7465C87.81 25.3889 87.6718 26.0458 87.3315 26.6006C87.0879 27.0542 87.1268 27.5285 87.1273 28.0279C87.1153 28.7233 87.0874 29.3101 86.8308 29.9628C86.6656 30.4281 86.6264 30.9224 86.5791 31.41C86.5682 31.5183 86.5682 31.5183 86.5571 31.6289C86.492 32.3442 86.4736 33.0575 86.4699 33.7751C86.4689 33.9076 86.4672 34.04 86.4647 34.1724C86.4504 34.9413 86.4538 35.5685 86.8321 36.2633C86.9028 36.4093 86.9734 36.5554 87.0435 36.7018C87.1511 36.9252 87.2613 37.1475 87.3714 37.3698C87.5235 37.6768 87.6747 37.9842 87.826 38.2915C87.8717 38.3842 87.8717 38.3842 87.9184 38.4788C88.377 39.4095 88.8275 40.3439 89.2778 41.2783C89.3079 41.3408 89.338 41.4032 89.369 41.4675C89.6058 41.9588 89.8425 42.4502 90.079 42.9416C90.1117 43.0095 90.1444 43.0774 90.1781 43.1473C90.3585 43.5221 90.5386 43.897 90.7185 44.272C90.79 44.4208 90.8621 44.5694 90.9342 44.7179C90.9729 44.7981 91.0116 44.8783 91.0515 44.9609C91.0842 45.0282 91.1168 45.0954 91.1505 45.1647C91.2175 45.3227 91.2175 45.3227 91.2175 45.4845C91.1182 45.4863 91.1182 45.4863 91.0168 45.4881C90.7112 45.4942 90.4057 45.502 90.1001 45.5098C89.9439 45.5125 89.9439 45.5125 89.7845 45.5153C88.5774 45.5488 87.479 45.777 86.5633 46.5765C85.6523 47.5166 85.2089 48.769 84.9458 50.0003C84.9275 50.0851 84.9093 50.1698 84.8905 50.2571C84.7052 51.1313 84.5496 52.01 84.3965 52.8899C83.2356 59.5311 83.2356 59.5311 81.071 61.1262C79.7586 61.9853 78.2275 62.1778 76.6838 61.9107C75.6977 61.7151 74.7326 61.4233 73.7662 61.1544C72.7879 60.8828 71.809 60.6346 70.8085 60.4488C70.6519 60.4192 70.6519 60.4192 70.4922 60.3891C68.6696 60.1023 66.3026 60.0484 64.7011 61.0634C64.5091 61.2025 64.3275 61.3489 64.146 61.5003C64.0857 61.5466 64.0253 61.5929 63.9632 61.6406C62.7221 62.6266 61.8519 64.0705 61.0836 65.4082C61.0496 65.4658 61.0155 65.5233 60.9804 65.5826C60.8053 65.8833 60.8053 65.8833 60.8181 66.2149C60.9523 66.366 61.0892 66.4841 61.2523 66.6064C62.0941 67.2937 62.5369 68.2114 62.6909 69.2492C62.7982 70.5475 62.4155 71.6565 61.5636 72.6626C60.7498 73.503 59.6777 73.949 58.4933 73.9993C57.1887 74.0199 56.1905 73.5823 55.251 72.7125C54.8242 72.2772 54.4759 71.8211 54.1945 71.2878C54.1596 71.2217 54.1247 71.1556 54.0887 71.0875C53.7756 70.3947 53.6976 69.4277 53.9415 68.6994C53.4124 68.2736 52.8633 67.8916 52.2925 67.5199C51.8546 67.2341 51.4236 66.9403 50.995 66.6418C50.5017 66.2984 50.0069 65.9573 49.5086 65.6206C49.4498 65.5808 49.3909 65.541 49.3302 65.5C49.1525 65.3801 48.9748 65.2602 48.797 65.1403C48.0683 64.6489 47.3413 64.1556 46.6201 63.654C46.0147 63.2329 45.4036 62.8202 44.7899 62.4102C44.2425 62.0438 43.7003 61.6708 43.1613 61.2931C42.7422 61.0004 42.3148 60.7218 41.8816 60.4488C41.8222 60.4859 41.7629 60.523 41.7017 60.5613C40.4404 61.3131 39.0924 61.5474 37.6385 61.2526C36.4748 60.917 35.4548 60.2502 34.8432 59.2314C34.1868 58.0474 33.9495 56.7441 34.3441 55.4287C34.5756 54.8157 34.8927 54.2536 35.3034 53.7351C34.5365 52.4912 33.7685 51.2481 32.9842 50.0142C32.2804 48.9069 31.5897 47.7923 30.9014 46.676C30.8227 46.5484 30.7439 46.4209 30.665 46.2934C30.6228 46.2164 30.5805 46.1394 30.537 46.06C30.4751 45.9754 30.4751 45.9754 30.412 45.8889C30.1747 45.8667 29.9823 45.8665 29.7479 45.8839C28.5486 45.9272 27.6402 45.5525 26.7645 44.7767C26.03 44.0428 25.8231 43.1415 25.8271 42.156C25.8484 41.2355 26.2204 40.4823 26.8699 39.8094C27.7482 39.0047 28.7032 38.8097 29.8803 38.8293C30.8333 38.8694 31.6461 39.3514 32.2885 40.0043C32.68 40.4482 33.0264 40.9277 33.0264 41.521C33.1434 41.5195 33.1434 41.5195 33.2627 41.5179C34.3048 41.5045 35.347 41.4922 36.3893 41.4805C36.4752 41.4796 36.5611 41.4786 36.6496 41.4776C39.8519 41.4422 43.054 41.433 46.2565 41.435C46.3646 41.4351 46.4728 41.4352 46.5843 41.4353C47.9122 41.4362 49.2401 41.4378 50.5681 41.4401C50.5758 41.3571 50.5758 41.3571 50.5837 41.2724C50.5908 41.1997 50.5979 41.127 50.6053 41.0521C50.6122 40.9801 50.6191 40.908 50.6262 40.8338C50.7228 40.0877 51.1915 39.4302 51.6644 38.8517C51.7282 38.772 51.7921 38.6924 51.8578 38.6103C52.0904 38.3446 52.3598 38.1612 52.6606 37.972C52.711 37.9395 52.7614 37.907 52.8133 37.8734C52.9359 37.7944 53.0591 37.7163 53.1825 37.6384C52.9736 36.9091 52.6938 36.206 52.4155 35.4993C52.3654 35.3714 52.3153 35.2435 52.2653 35.1157C52.1342 34.781 52.0028 34.4464 51.8713 34.1119C51.7379 33.7724 51.6048 33.4328 51.4717 33.0932C51.2373 32.495 51.0025 31.897 50.7676 31.299C50.7296 31.2022 50.6916 31.1053 50.6524 31.0055C50.6291 30.9487 50.6057 30.8918 50.5817 30.8333C50.3994 30.3843 50.3994 30.3843 50.3994 30.1158C50.3286 30.1274 50.3286 30.1274 50.2564 30.1392C48.8634 30.3239 47.4944 29.8987 46.3513 29.1451C46.0529 28.9175 45.7782 28.6749 45.508 28.4171C45.4553 28.3694 45.4025 28.3216 45.3482 28.2724C44.3767 27.3174 43.9195 25.8759 43.8845 24.5749C43.906 22.9528 44.5259 21.6161 45.7023 20.461C46.8199 19.4405 48.251 18.8558 49.7985 18.8572C49.8579 18.8571 49.9172 18.8571 49.9784 18.857C50.3999 18.8611 50.7599 18.9067 51.1584 19.0341C51.1801 18.9659 51.2017 18.8978 51.224 18.8275C51.3347 18.5283 51.4745 18.2521 51.6275 17.9715C51.6715 17.8899 51.6715 17.8899 51.7163 17.8067C51.8111 17.6309 51.9064 17.4554 52.0018 17.2799C52.0678 17.1578 52.1338 17.0357 52.1997 16.9136C52.3862 16.5686 52.5734 16.224 52.7608 15.8795C52.8035 15.8007 52.8463 15.722 52.8903 15.6408C53.2306 15.0148 53.5765 14.3916 53.9243 13.7694C53.9526 13.7188 53.9809 13.6683 54.01 13.6161C54.1507 13.3645 54.2916 13.113 54.4327 12.8616C54.5789 12.6006 54.7243 12.3393 54.8692 12.0777C54.9068 12.0106 54.9445 11.9434 54.9833 11.8743C55.1689 11.5632 55.1689 11.5632 55.1591 11.2183C55.1191 11.1549 55.0791 11.0915 55.0378 11.0262C54.9528 10.8647 54.8684 10.703 54.7848 10.5409C53.8641 10.5893 52.9492 10.6631 52.0324 10.7572C51.898 10.7707 51.7636 10.7843 51.6292 10.7978C51.3429 10.8267 51.0565 10.8558 50.7702 10.885C50.3168 10.9312 49.8634 10.9769 49.4099 11.0226C48.2848 11.136 47.1598 11.25 46.0347 11.3641C45.1577 11.4531 44.2807 11.5419 43.4037 11.6302C42.9535 11.6755 42.5033 11.7212 42.0531 11.7672C41.773 11.7957 41.4929 11.8239 41.2127 11.852C41.0834 11.8651 40.9541 11.8782 40.8248 11.8915C40.1916 11.9567 39.5675 12.0136 38.9298 11.9969C38.9127 12.0777 38.9127 12.0777 38.8953 12.1602C38.6613 13.1209 38.1189 13.9643 37.2418 14.4971C36.2516 15.0349 35.3069 15.233 34.1702 15.015C32.9958 14.6962 32.1338 14.1127 31.5324 13.0914C31.0392 12.1596 30.981 11.1441 31.2554 10.1364C31.6446 9.12354 32.3432 8.3342 33.3637 7.87156C34.2589 7.47961 35.2651 7.38565 36.21 7.67439C36.2722 7.69786 36.3344 7.72132 36.3985 7.74549C36.609 7.80144 36.7042 7.78957 36.9058 7.70978C37.0748 7.57996 37.0748 7.57996 37.2484 7.41151C38.5108 6.29749 39.9753 5.44765 41.4599 4.63604C41.5662 4.57785 41.5662 4.57785 41.6746 4.5185C42.824 3.89703 44.032 3.40887 45.255 2.93739C45.3263 2.90976 45.3976 2.88212 45.471 2.85366C51.3784 0.590122 58.7541 -0.17149 64.8207 1.96673C64.882 1.889 64.882 1.889 64.9446 1.80969C65.849 0.690322 66.8731 -0.0113741 68.3944 0.000139558ZM38.6768 8.84222C38.5649 8.92375 38.4527 9.00495 38.3395 9.08488C38.3939 9.32853 38.4787 9.5311 38.5978 9.75221C38.6795 9.90387 38.6795 9.90387 38.7612 10.0555C39.4896 10.0762 40.2043 9.99715 40.9272 9.92317C41.0691 9.90892 41.2111 9.89471 41.353 9.88053C41.7367 9.84209 42.1204 9.80319 42.504 9.76419C42.9064 9.72338 43.3088 9.68298 43.7113 9.64253C44.3868 9.57458 45.0624 9.50634 45.7379 9.43792C46.6893 9.34154 47.6409 9.24566 48.5924 9.14988C49.3328 9.07534 50.0731 9.00065 50.8135 8.92595C50.8926 8.91797 50.9718 8.90998 51.0533 8.90176C51.5089 8.8558 51.9644 8.80976 52.42 8.76362C52.5577 8.74968 52.6955 8.73575 52.8332 8.72185C53.0219 8.70281 53.2105 8.68369 53.3991 8.66455C53.5045 8.65389 53.6098 8.64323 53.7184 8.63224C54.0462 8.59738 54.3733 8.55859 54.7005 8.51866C54.718 8.46872 54.7355 8.41877 54.7535 8.36731C55.099 7.45658 55.6962 6.73789 56.6161 6.30878C57.4753 5.99245 58.4411 5.96065 59.3155 6.24811C59.599 6.3759 59.8435 6.54471 60.089 6.73028C60.2629 6.8365 60.2629 6.8365 60.4679 6.81117C60.7378 6.72295 60.9521 6.60122 61.1943 6.45602C61.6503 6.1846 62.1111 5.92319 62.5772 5.66831C62.7452 5.57595 62.913 5.48351 63.0809 5.39104C63.1935 5.32926 63.3064 5.26781 63.4194 5.20672C63.5803 5.1197 63.7403 5.03141 63.9003 4.94284C63.9942 4.89156 64.0882 4.84028 64.185 4.78744C64.4039 4.65718 64.4039 4.65718 64.4776 4.48036C64.4845 4.27877 64.4499 4.10325 64.399 3.90804C63.1756 3.49057 61.9729 3.12942 60.6883 2.93739C60.6296 2.92846 60.571 2.91953 60.5105 2.91033C53.0039 1.81237 44.5159 4.28936 38.6768 8.84222ZM65.3267 6.33469C64.5473 6.74916 63.7748 7.17385 63.0075 7.60867C62.93 7.65254 62.8525 7.6964 62.7727 7.7416C62.6246 7.82579 62.4769 7.9107 62.3297 7.99643C62.1948 8.07294 62.0574 8.14571 61.9177 8.21385C61.7401 8.30449 61.5927 8.38531 61.4473 8.51866C61.3996 8.76491 61.3922 8.90151 61.4209 9.14049C61.4529 9.6261 61.4302 9.99824 61.2414 10.4587C61.1821 10.6638 61.1908 10.7494 61.2786 10.9453C61.4492 11.1415 61.4492 11.1415 61.6634 11.3346C61.7402 11.4061 61.8169 11.4776 61.896 11.5513C62.1313 11.7625 62.3722 11.9652 62.6171 12.1659C62.8401 12.3578 63.0502 12.5609 63.2605 12.7653C63.5197 13.0173 63.7806 13.2635 64.0617 13.4933C64.3865 13.7588 64.6843 14.0477 64.9838 14.3388C65.2035 14.5513 65.4266 14.7551 65.664 14.9493C65.9451 15.1791 66.2059 15.4253 66.4652 15.6773C67.0841 16.3308 67.0841 16.3308 67.8568 16.7692C68.0587 16.6634 68.0587 16.6634 68.2732 16.5114C69.3797 15.8214 70.585 15.7082 71.8739 15.9329C72.9485 16.2437 73.8417 16.901 74.4197 17.823C74.8449 18.6042 74.9669 19.2552 74.9514 20.1261C74.9507 20.2081 74.9499 20.29 74.9491 20.3745C74.9472 20.5748 74.9444 20.7751 74.9409 20.9754C75.0355 21.0063 75.1301 21.0373 75.2275 21.0691C75.5091 21.1612 75.7907 21.2533 76.0723 21.3454C76.3902 21.4495 76.7082 21.5533 77.0263 21.657C77.7021 21.8776 78.3775 22.0983 79.0483 22.3328C79.1376 22.3638 79.227 22.3949 79.319 22.4268C79.4779 22.4824 79.6363 22.5389 79.7943 22.5965C79.8974 22.6324 79.8974 22.6324 80.0026 22.669C80.0601 22.6898 80.1176 22.7105 80.1768 22.7319C80.394 22.7629 80.4929 22.7045 80.6757 22.5932C80.7912 22.4815 80.9034 22.3665 81.013 22.2494C81.7213 21.559 82.5689 21.309 83.5431 21.1372C83.12 18.201 80.4031 14.9548 78.3986 12.8057C78.3432 12.7456 78.2877 12.6854 78.2306 12.6235C77.7579 12.114 77.2672 11.6249 76.7646 11.1425C76.6547 11.0356 76.6547 11.0356 76.5426 10.9265C76.0352 10.4388 75.5016 10.0001 74.9409 9.57021C74.7878 9.44406 74.6349 9.31773 74.4823 9.19105C73.7718 8.62268 73.0083 8.12525 72.2422 7.62889C72.1754 7.58531 72.1086 7.54173 72.0397 7.49682C71.8553 7.37739 71.6696 7.26007 71.4832 7.14357C71.4282 7.10801 71.3732 7.07245 71.3165 7.03582C71.1475 6.92836 71.1475 6.92836 70.8928 6.82001C70.7078 6.85902 70.7078 6.85902 70.5555 6.98179C69.3882 7.52417 68.3726 7.73631 67.0849 7.38971C66.4281 7.15899 65.8719 6.74657 65.3267 6.33469ZM59.4552 12.2866C59.3376 12.3359 59.3376 12.3359 59.2177 12.3861C58.4784 12.6526 57.7459 12.6191 56.9775 12.4822C56.5258 13.3036 56.0757 14.1257 55.6282 14.9493C55.2869 15.5774 54.9443 16.2048 54.5997 16.8312C54.4021 17.1907 54.2057 17.5506 54.0103 17.9112C53.9647 17.9953 53.9191 18.0793 53.8721 18.166C53.7833 18.3299 53.6946 18.4939 53.606 18.658C53.5452 18.77 53.5452 18.77 53.4832 18.8843C53.4475 18.9504 53.4118 19.0164 53.375 19.0845C53.2969 19.2233 53.2134 19.3593 53.1268 19.4934C52.9997 19.6684 52.9997 19.6684 53.0138 19.843C53.1393 19.9461 53.1393 19.9461 53.3037 20.0503C54.332 20.7756 54.8833 21.6414 55.3752 22.755C56.956 22.2911 58.5352 21.8227 60.1091 21.3378C60.2097 21.3069 60.3102 21.2759 60.4138 21.244C60.923 21.0869 61.4319 20.9289 61.9404 20.7697C62.8002 20.5011 63.6581 20.236 64.5318 20.0117C64.6603 19.9777 64.7887 19.9436 64.9172 19.9094C65.1434 19.8493 65.3683 19.7955 65.5972 19.7445C65.885 19.6682 66.0979 19.608 66.3387 19.4386C66.5011 19.093 66.5609 18.7633 66.5917 18.387C66.5495 18.3527 66.5072 18.3184 66.4637 18.283C66.0669 17.9592 65.6983 17.6142 65.3325 17.2586C65.1127 17.046 64.8895 16.8421 64.652 16.6479C64.3709 16.4181 64.1101 16.172 63.8508 15.9199C63.5933 15.6696 63.3344 15.4249 63.0549 15.197C62.7086 14.9139 62.3929 14.6047 62.0734 14.2945C61.793 14.0234 61.5041 13.769 61.2002 13.522C60.8913 13.2565 60.6063 12.9668 60.3183 12.6806C59.946 12.317 59.946 12.317 59.4552 12.2866ZM66.0467 21.4904C65.9279 21.5272 65.9279 21.5272 65.8067 21.5647C65.6759 21.6055 65.6759 21.6055 65.5425 21.6472C65.4509 21.6756 65.3593 21.704 65.2649 21.7332C65.0653 21.7951 64.8657 21.857 64.6662 21.9191C64.1313 22.0853 63.5961 22.2508 63.0609 22.4162C63.0055 22.4334 62.9501 22.4505 62.8931 22.4681C61.6203 22.8616 60.3454 23.2488 59.0701 23.6346C58.9682 23.6655 58.8662 23.6963 58.7612 23.7281C58.5633 23.788 58.3655 23.8479 58.1676 23.9077C57.9833 23.9634 57.7991 24.0193 57.6148 24.0752C57.251 24.1853 56.8874 24.2947 56.5207 24.3959C56.4213 24.4235 56.3219 24.4511 56.2195 24.4795C56.0993 24.5114 56.0993 24.5114 55.9766 24.544C55.768 24.6081 55.768 24.6081 55.6282 24.8581C55.5921 25.0254 55.563 25.1943 55.5386 25.3636C55.5254 25.4524 55.5123 25.5413 55.4987 25.6328C55.4858 25.7241 55.4728 25.8155 55.4595 25.9096C55.4348 26.0053 55.4102 26.101 55.3847 26.1997C55.3442 26.4866 55.3442 26.4866 55.5557 26.7002C55.6414 26.7722 55.729 26.8422 55.8179 26.9106C55.8641 26.9485 55.9102 26.9864 55.9577 27.0254C56.0993 27.1408 56.2428 27.2534 56.3872 27.3656C56.4679 27.4294 56.5485 27.4932 56.6316 27.559C56.7844 27.679 56.9377 27.7985 57.0915 27.9173C57.3126 28.0918 57.525 28.2726 57.7366 28.4576C58.0165 28.7021 58.3014 28.9368 58.5957 29.1653C59.1388 29.5872 59.664 30.0279 60.191 30.4679C60.4419 30.6768 60.6941 30.8843 60.9466 31.0915C60.9948 31.1311 61.0431 31.1708 61.0929 31.2116C61.1903 31.2916 61.2876 31.3715 61.385 31.4514C61.5333 31.5731 61.6814 31.695 61.8294 31.817C62.3051 32.2086 62.7815 32.5993 63.2605 32.9873C63.7894 33.4157 64.3152 33.8476 64.8404 34.2802C65.1357 34.5233 65.4312 34.7662 65.7267 35.009C65.9761 35.2139 66.2253 35.4191 66.4741 35.6247C66.9239 35.996 67.3745 36.365 67.8357 36.7233C68.2046 37.0105 68.5572 37.3112 68.9083 37.6181C69.1292 37.8065 69.3558 37.9858 69.5856 38.1641C69.8888 38.3994 70.1829 38.6402 70.4711 38.8921C71.04 39.389 71.6412 39.8472 72.2422 40.3077C72.5233 40.2045 72.7843 40.0864 73.0486 39.9487C74.0317 39.4759 74.967 39.4296 76.0372 39.5797C77.1828 37.1543 77.1828 37.1543 78.3208 34.7257C78.6767 33.963 79.0338 33.2008 79.3913 32.4388C79.4888 32.2309 79.5863 32.023 79.6837 31.8151C79.9923 31.1571 80.3018 30.4995 80.6134 29.8428C80.6959 29.6687 80.7784 29.4946 80.8608 29.3205C80.9377 29.1585 81.0149 28.9967 81.0921 28.8349C81.1375 28.7389 81.183 28.643 81.2298 28.5441C81.2696 28.4605 81.3094 28.3769 81.3504 28.2908C81.4453 28.1042 81.4453 28.1042 81.4347 27.9318C81.336 27.8473 81.2333 27.7671 81.129 27.6891C80.7295 27.3629 80.4904 27.0023 80.254 26.5567C80.2271 26.5072 80.2003 26.4576 80.1726 26.4066C79.9161 25.8522 79.8965 25.2121 79.8323 24.6154C79.2682 24.3925 78.7003 24.1921 78.1209 24.009C78.0409 23.9835 77.9608 23.958 77.8784 23.9317C77.6249 23.851 77.3714 23.7706 77.1178 23.6902C76.9495 23.6367 76.7812 23.5831 76.6129 23.5296C76.2888 23.4264 75.9647 23.3234 75.6405 23.2204C75.0697 23.0391 74.4992 22.8567 73.9289 22.6741C73.8292 22.7701 73.8292 22.7701 73.7276 22.8681C72.8166 23.7379 71.7719 24.0736 70.5125 24.0746C69.4026 24.0576 68.4707 23.6962 67.6482 22.9771C67.1703 22.5003 66.8673 21.9831 66.5917 21.3799C66.3886 21.3799 66.2403 21.4302 66.0467 21.4904ZM54.2788 28.1745C54.2448 28.2118 54.2108 28.2491 54.1757 28.2876C53.6367 28.843 53.0001 29.224 52.3391 29.6304C52.7425 30.7481 53.1595 31.8605 53.5855 32.9703C53.683 33.2243 53.7802 33.4784 53.8774 33.7325C54.1899 34.5483 54.5052 35.3628 54.8273 36.1751C54.8558 36.2471 54.8844 36.3191 54.9138 36.3933C54.94 36.4592 54.9662 36.525 54.9932 36.5928C55.0162 36.6505 55.0391 36.7082 55.0628 36.7676C55.1219 36.9155 55.1219 36.9155 55.2065 37.0722C55.3781 37.0892 55.5506 37.0977 55.7231 37.1025C57.2963 37.1931 58.5227 37.7557 59.5919 38.8517C60.2498 39.6488 60.6056 40.5788 60.7423 41.5804C60.7529 41.7606 60.7529 41.7606 60.8569 41.8445C60.973 41.861 61.0898 41.8725 61.2066 41.8819C61.282 41.8881 61.3575 41.8944 61.4352 41.9008C61.5186 41.9073 61.602 41.9138 61.6879 41.9206C61.7753 41.9277 61.8626 41.9348 61.9526 41.9421C62.2434 41.9657 62.5342 41.9887 62.825 42.0117C63.0269 42.0279 63.2287 42.0441 63.4306 42.0603C63.855 42.0943 64.2794 42.1281 64.7038 42.1617C65.2461 42.2046 65.7884 42.2482 66.3306 42.292C66.7482 42.3256 67.1658 42.3589 67.5835 42.3921C67.7833 42.408 67.983 42.424 68.1828 42.4402C68.4635 42.4628 68.7443 42.485 69.025 42.507C69.1067 42.5137 69.1884 42.5204 69.2726 42.5272C69.8138 42.569 70.35 42.5799 70.8928 42.5725C70.9763 42.359 71.0598 42.1454 71.1458 41.9254C71.0886 41.8813 71.0315 41.8372 70.9725 41.7918C70.5717 41.4803 70.1777 41.1668 69.7965 40.8334C69.5083 40.5815 69.2141 40.3407 68.9109 40.1055C68.6078 39.8702 68.3136 39.6294 68.0254 39.3775C67.7454 39.133 67.4606 38.8982 67.1663 38.6697C66.6232 38.2478 66.098 37.8072 65.571 37.3671C65.3201 37.1582 65.0678 36.9508 64.8154 36.7435C64.7671 36.7039 64.7188 36.6642 64.6691 36.6234C64.5717 36.5435 64.4743 36.4636 64.3769 36.3837C64.2287 36.2619 64.0806 36.14 63.9325 36.0181C63.4569 35.6264 62.9804 35.2357 62.5015 34.8477C61.9726 34.4193 61.4468 33.9874 60.9216 33.5548C60.6263 33.3117 60.3308 33.0689 60.0353 32.8261C59.7859 32.6211 59.5367 32.416 59.2879 32.2103C58.8381 31.839 58.3875 31.47 57.9263 31.1117C57.5573 30.8246 57.2048 30.5238 56.8537 30.2169C56.5582 29.965 56.2506 29.7284 55.9431 29.4902C55.7124 29.3068 55.4907 29.1167 55.2698 28.9227C54.9539 28.6463 54.6332 28.4035 54.2788 28.1745ZM84.9768 28.498C84.9317 28.5097 84.8867 28.5214 84.8404 28.5334C84.3431 28.6522 83.8849 28.6746 83.3744 28.6598C82.9463 29.4641 82.5418 30.2745 82.1639 31.1016C82.0192 31.4181 81.8733 31.7341 81.7276 32.0501C81.697 32.1165 81.6664 32.1828 81.6349 32.2512C81.2812 33.0176 80.9205 33.781 80.5597 34.5444C80.4927 34.6863 80.4256 34.8282 80.3586 34.9702C80.2575 35.1843 80.1564 35.3984 80.0552 35.6125C79.7076 36.3485 79.3606 37.0849 79.0144 37.8216C78.9493 37.9601 78.8841 38.0987 78.8188 38.2372C78.4704 38.977 78.1271 39.7174 77.8083 40.4694C77.8558 40.5232 77.9032 40.577 77.9521 40.6324C78.9061 41.7222 79.1993 42.7915 79.0733 44.1903C78.8807 45.2399 78.2682 46.0742 77.4067 46.7301C76.4495 47.3652 75.3092 47.4559 74.1819 47.3449C73.2584 47.1777 72.3794 46.6976 71.7839 45.9957C71.48 45.5639 71.2332 45.089 71.0615 44.5947C70.8255 44.5193 70.6416 44.493 70.3956 44.4734C70.3104 44.4665 70.2253 44.4596 70.1376 44.4525C69.9976 44.4415 69.9976 44.4415 69.8548 44.4304C69.7564 44.4225 69.6581 44.4146 69.5568 44.4065C69.2871 44.3849 69.0173 44.3635 68.7476 44.3423C68.4654 44.3201 68.1832 44.2975 67.9011 44.2749C67.4272 44.2371 66.9534 44.1996 66.4795 44.1622C65.8711 44.1141 65.2628 44.0657 64.6545 44.0172C64.1316 43.9755 63.6088 43.9339 63.0859 43.8924C62.9178 43.8791 62.7497 43.8657 62.5815 43.8523C62.2683 43.8274 61.9552 43.8027 61.642 43.7779C61.5487 43.7705 61.4553 43.7631 61.3592 43.7554C61.2741 43.7487 61.1889 43.742 61.1012 43.7351C61.0271 43.7293 60.9531 43.7234 60.8768 43.7174C60.7299 43.7077 60.5825 43.705 60.4353 43.705C60.4015 43.7773 60.3677 43.8497 60.3328 43.9243C59.8002 45.026 59.0364 45.8901 57.8812 46.4308C57.769 46.4837 57.769 46.4837 57.6545 46.5375C57.5981 46.5637 57.5417 46.5899 57.4835 46.6169C57.6695 50.2352 57.8763 53.8523 58.0881 57.4692C58.1228 58.0625 58.1573 58.6558 58.1919 59.2492C58.2298 59.9016 58.2679 60.5541 58.306 61.2065C58.322 61.4799 58.3379 61.7533 58.3538 62.0266C58.3724 62.3464 58.3911 62.6661 58.4099 62.9859C58.4167 63.1019 58.4235 63.2179 58.4302 63.3339C58.473 64.0714 58.5228 64.8081 58.5799 65.5447C58.7797 65.36 58.902 65.1977 59.025 64.958C59.0608 64.8896 59.0966 64.8212 59.1335 64.7507C59.1717 64.6774 59.2099 64.6041 59.2493 64.5286C60.4886 62.2101 62.3235 59.6294 65.0095 58.7407C68.7 57.6618 72.5083 58.7149 76.0696 59.7328C77.1414 60.0358 78.2908 60.2692 79.3606 59.8377C80.6069 59.1716 81.1394 57.9801 81.519 56.7279C81.9655 55.1125 82.2436 53.4671 82.5232 51.8196C82.9709 49.1825 82.9709 49.1825 83.3744 48.0729C83.4 48.0014 83.4255 47.9298 83.4519 47.8561C83.5148 47.6885 83.5818 47.5243 83.6538 47.3601C83.6783 47.3037 83.7029 47.2473 83.7282 47.1892C83.9683 46.6583 84.2729 46.187 84.6394 45.7272C84.6903 45.6626 84.7412 45.5981 84.7936 45.5316C85.5372 44.6611 86.5486 44.1377 87.6518 43.7957C87.8494 43.7195 87.8494 43.7195 87.9532 43.5677C88.0419 43.2906 87.94 43.156 87.8096 42.8986C87.7861 42.8514 87.7627 42.8042 87.7385 42.7555C87.6607 42.5996 87.5811 42.4445 87.5015 42.2894C87.4467 42.1801 87.3919 42.0707 87.3373 41.9612C87.2247 41.7355 87.1115 41.5102 86.9978 41.285C86.752 40.7968 86.5155 40.3045 86.2787 39.8122C86.0246 39.2843 85.7702 38.7566 85.5068 38.2329C85.4048 38.0299 85.3038 37.8265 85.2028 37.6231C85.1322 37.4818 85.0603 37.3411 84.9883 37.2004C84.4602 36.1339 84.4419 35.1198 84.4497 33.963C84.4499 33.8949 84.4501 33.8269 84.4504 33.7567C84.4637 30.453 84.4637 30.453 84.9899 29.0462C85.0627 28.8164 85.0651 28.7183 84.9768 28.498ZM36.4314 43.4219C36.297 43.4233 36.297 43.4233 36.1599 43.4248C35.0873 43.4364 34.0147 43.4489 32.9421 43.4623C32.9085 43.5286 32.8749 43.5949 32.8403 43.6633C32.7732 43.794 32.7732 43.794 32.7049 43.9274C32.6608 44.0137 32.6168 44.1001 32.5715 44.189C32.4361 44.433 32.4361 44.433 32.2896 44.6143C32.2368 44.6847 32.2368 44.6847 32.183 44.7565C32.2676 45.0758 32.4582 45.3511 32.6314 45.634C32.6591 45.6793 32.6867 45.7245 32.7152 45.7712C32.8063 45.9202 32.8979 46.0689 32.9895 46.2176C33.0542 46.323 33.1189 46.4284 33.1836 46.5339C33.6706 47.3264 34.1669 48.1134 34.6665 48.8987C35.2221 49.7725 35.7667 50.6525 36.3098 51.5335C36.3593 51.6136 36.3593 51.6136 36.4097 51.6954C36.4714 51.7954 36.5331 51.8955 36.5947 51.9957C36.7218 52.2018 36.8516 52.4033 36.9901 52.6027C37.0503 52.5861 37.1104 52.5695 37.1723 52.5524C38.6885 52.1434 40.0239 52.1997 41.4378 52.9256C42.4494 53.5228 43.1476 54.4211 43.4839 55.5146C43.7363 56.5329 43.6972 57.4905 43.2935 58.4651C43.2238 58.6926 43.2303 58.7743 43.3153 58.9928C43.433 59.109 43.433 59.109 43.5867 59.2026C43.6722 59.2592 43.6722 59.2592 43.7595 59.317C43.8216 59.3568 43.8838 59.3967 43.9478 59.4377C44.0797 59.5246 44.2116 59.6115 44.3434 59.6984C44.4111 59.7425 44.4787 59.7866 44.5484 59.8321C44.8548 60.0328 45.1577 60.2382 45.4605 60.4437C45.5194 60.4835 45.5782 60.5233 45.6388 60.5643C46.1396 60.9034 46.6364 61.2478 47.1329 61.5927C47.7959 62.0528 48.4649 62.5049 49.1344 62.9563C49.8631 63.4477 50.5901 63.941 51.3113 64.4426C51.9242 64.8689 52.5426 65.287 53.1635 65.7024C53.7634 66.1039 54.3594 66.5104 54.9535 66.9198C55.0335 66.8498 55.1135 66.7797 55.196 66.7075C55.607 66.3681 56.0712 66.1007 56.5559 65.8683C56.5706 64.8537 56.5243 63.8473 56.4643 62.8346C56.4544 62.6634 56.4446 62.4923 56.4348 62.3212C56.4083 61.8605 56.3814 61.3998 56.3543 60.9391C56.326 60.4559 56.298 59.9727 56.27 59.4895C56.223 58.6795 56.1756 57.8696 56.1281 57.0596C56.0732 56.1227 56.0187 55.1858 55.9646 54.2489C55.9124 53.3464 55.8598 52.4439 55.8071 51.5415C55.7846 51.1576 55.7623 50.7738 55.7402 50.39C55.7141 49.9391 55.6877 49.4882 55.6611 49.0373C55.6513 48.8717 55.6417 48.706 55.6322 48.5403C55.6193 48.3148 55.6059 48.0893 55.5924 47.8639C55.5869 47.7647 55.5869 47.7647 55.5812 47.6636C55.5654 47.4062 55.5449 47.1863 55.4595 46.9405C55.3277 46.9255 55.3277 46.9255 55.1933 46.9102C53.6754 46.7115 52.4347 46.1089 51.4829 44.9376C51.2278 44.5749 51.0515 44.2219 50.8975 43.8107C50.8673 43.7303 50.8372 43.65 50.8061 43.5673C50.7832 43.5059 50.7603 43.4446 50.7367 43.3814C49.3048 43.3789 47.8729 43.3773 46.4409 43.3764C46.2802 43.3763 46.2802 43.3763 46.1161 43.3762C42.8877 43.3743 39.6597 43.387 36.4314 43.4219Z" fill="#11489D"/>
<path d="M41.7815 15.2829C42.5304 15.8408 43.0836 16.6715 43.231 17.5781C43.312 18.6691 43.1378 19.6312 42.3877 20.4901C41.6347 21.2553 40.8543 21.584 39.7733 21.7034C39.7648 21.7879 39.7563 21.8724 39.7476 21.9594C39.6821 22.4587 39.5499 22.9433 39.4254 23.4314C39.3995 23.5341 39.3736 23.6367 39.347 23.7425C39.2925 23.9585 39.2377 24.1745 39.1828 24.3904C39.1124 24.6671 39.0424 24.9438 38.9726 25.2205C38.9058 25.4853 38.8388 25.7501 38.7718 26.0148C38.7467 26.1141 38.7216 26.2135 38.6957 26.3158C38.6723 26.4077 38.6489 26.4995 38.6249 26.5941C38.6043 26.6749 38.5838 26.7558 38.5627 26.8391C38.5224 26.9892 38.475 27.1376 38.4239 27.2847C38.4849 27.3039 38.5459 27.3231 38.6087 27.3428C39.3927 27.6859 39.9601 28.5152 40.2786 29.2598C40.6874 30.3743 40.6443 31.5628 40.1607 32.6464C39.6143 33.7032 38.7652 34.4832 37.5964 34.873C36.3431 35.2451 35.0619 35.1114 33.8962 34.5494C32.7654 33.8947 32.0878 32.9502 31.7615 31.7335C31.6845 31.399 31.6874 31.1203 31.726 30.7808C31.7522 30.4844 31.738 30.2489 31.6771 29.954C31.3683 29.6173 30.9894 29.4469 30.5755 29.2563C30.4642 29.2005 30.3532 29.1441 30.2425 29.0872C30.0171 28.9717 29.7907 28.8585 29.5633 28.7466C29.0632 28.4976 28.5871 28.2121 28.1087 27.9267C27.9492 27.833 27.7896 27.7394 27.63 27.6458C27.5172 27.5794 27.4045 27.513 27.2917 27.4465C27.2169 27.4951 27.2169 27.4951 27.1405 27.5448C25.9758 28.297 24.928 28.6869 23.4973 28.4576C22.3213 28.1764 21.3611 27.5644 20.7136 26.5668C20.1567 25.5613 20.0218 24.4376 20.3446 23.3363C20.7705 22.1734 21.4958 21.4199 22.6273 20.8468C23.6612 20.4242 24.8978 20.4252 25.9512 20.7874C26.3565 20.9652 26.6971 21.1877 27.0387 21.4607C27.0985 21.5071 27.1583 21.5535 27.2199 21.6014C27.8494 22.1415 28.3938 23.067 28.4724 23.8874C28.5057 24.53 28.5132 25.1326 28.3037 25.7478C28.3625 25.7686 28.4212 25.7893 28.4817 25.8107C28.7532 25.9209 28.9973 26.0539 29.2512 26.1978C29.3011 26.2259 29.3509 26.254 29.4023 26.283C29.5634 26.374 29.7242 26.4653 29.885 26.5567C29.9954 26.6191 30.1057 26.6815 30.2161 26.7439C30.4342 26.8671 30.6521 26.9905 30.87 27.114C31.198 27.3 31.5264 27.4852 31.8549 27.6703C32.105 27.8112 32.3549 27.9524 32.6048 28.0936C32.6427 28.0619 32.6806 28.0303 32.7197 27.9977C33.3868 27.4445 34.0349 26.9836 34.8819 26.7185C34.9321 26.7025 34.9823 26.6866 35.0341 26.6701C35.3127 26.6211 35.5906 26.6292 35.8728 26.6325C35.9316 26.6329 35.9904 26.6333 36.051 26.6336C36.1954 26.6346 36.3398 26.636 36.4842 26.6376C36.4933 26.5794 36.5023 26.5211 36.5117 26.4612C36.6125 25.845 36.7551 25.2484 36.921 24.6457C36.9721 24.455 37.023 24.2643 37.0739 24.0735C37.1535 23.7763 37.2337 23.4792 37.3155 23.1826C37.3949 22.8938 37.4718 22.6046 37.5483 22.3151C37.5735 22.2261 37.5987 22.137 37.6246 22.0453C37.6461 21.9626 37.6675 21.8799 37.6896 21.7947C37.7093 21.7222 37.729 21.6497 37.7493 21.575C37.7708 21.3661 37.7708 21.3661 37.5945 21.2003C37.5041 21.129 37.5041 21.129 37.4119 21.0563C37.3582 21.0135 37.3045 20.9706 37.2492 20.9264C37.195 20.8842 37.1409 20.842 37.0851 20.7985C36.3799 20.2102 35.9409 19.419 35.8738 18.5235C35.8502 17.3987 36.091 16.4801 36.9059 15.6368C38.2843 14.4305 40.2325 14.2871 41.7815 15.2829Z" fill="#F84D6F"/>
<path d="M22.2604 33.3154C23.1338 33.9822 23.679 34.9916 23.9184 36.0207C24.0347 37.3332 23.8638 38.5689 22.9875 39.6253C22.1843 40.5147 21.1843 41.1809 19.929 41.2963C18.5749 41.3587 17.5295 41.1637 16.4126 40.3886C16.3239 40.3286 16.2352 40.2685 16.1438 40.2066C15.1708 39.2941 14.6682 38.1415 14.6152 36.8447C14.6523 35.5951 15.1391 34.514 16.0371 33.6117C17.8502 32.0388 20.2738 32.0493 22.2604 33.3154Z" fill="#F94D6F"/>
<path d="M15.9065 22.4313C16.8752 23.1277 17.4168 24.0514 17.6426 25.1875C17.8129 26.3418 17.5199 27.4576 16.8342 28.417C16.0784 29.3229 15.079 29.892 13.8765 30.074C12.5051 30.1883 11.2842 29.8755 10.2086 29.0338C9.29926 28.1808 8.81874 27.0737 8.80127 25.8589C8.81466 24.6371 9.26197 23.6622 10.1368 22.7782C11.7329 21.3267 14.1274 21.2035 15.9065 22.4313Z" fill="#F84D6F"/>
<path d="M184.085 17.8581C184.51 18.1385 184.51 18.1385 184.794 18.4105C185.189 18.4527 185.189 18.4527 185.659 18.4466C185.844 18.4477 186.028 18.4488 186.219 18.45C186.424 18.4499 186.63 18.4497 186.836 18.4496C187.052 18.4504 187.268 18.4513 187.484 18.4524C187.95 18.4544 188.415 18.4556 188.881 18.4562C189.618 18.4571 190.355 18.46 191.092 18.4633C192.659 18.47 194.225 18.4744 195.791 18.4785C197.479 18.483 199.166 18.4879 200.853 18.4954C201.585 18.4986 202.317 18.5005 203.049 18.5013C203.506 18.5021 203.963 18.5041 204.42 18.5063C204.631 18.5071 204.842 18.5074 205.053 18.5072C207.094 18.5061 208.797 18.7544 210.36 20.1274C211.586 21.378 211.94 22.8211 211.918 24.476C211.889 25.1329 211.711 25.6846 211.432 26.2843C211.281 26.5813 211.281 26.5813 211.308 26.9781C211.535 27.2095 211.535 27.2095 211.831 27.4286C213.031 28.4026 213.667 29.4058 213.843 30.9134C213.929 32.5703 213.452 34.0011 212.283 35.2482C210.97 36.4074 209.268 36.8153 207.531 36.8023C207.415 36.8025 207.299 36.8028 207.179 36.803C206.793 36.8034 206.407 36.802 206.021 36.8005C205.743 36.8004 205.465 36.8004 205.186 36.8006C204.434 36.8007 203.681 36.7991 202.929 36.7972C202.142 36.7955 201.354 36.7953 200.567 36.795C199.077 36.7941 197.587 36.7919 196.097 36.7892C194.401 36.7861 192.704 36.7846 191.007 36.7833C187.518 36.7804 184.029 36.7756 180.54 36.7696C180.388 36.3314 180.38 36.0155 180.38 35.5547C180.38 35.3885 180.379 35.2222 180.379 35.051C180.379 34.869 180.379 34.687 180.38 34.505C180.379 34.3174 180.379 34.1298 180.379 33.9422C180.379 33.5481 180.379 33.1541 180.38 32.76C180.381 32.2594 180.38 31.7588 180.379 31.2582C180.379 30.87 180.379 30.4818 180.379 30.0936C180.38 29.8206 180.379 29.5477 180.379 29.2747C180.379 29.0196 180.379 29.0196 180.38 28.7593C180.38 28.612 180.38 28.4646 180.38 28.3128C180.405 27.5935 180.473 26.8788 180.54 26.1621C180.673 26.1619 180.805 26.1617 180.942 26.1615C184.172 26.1565 187.401 26.1485 190.631 26.1371C192.192 26.1317 193.754 26.1273 195.316 26.1253C196.677 26.1235 198.039 26.1198 199.4 26.1139C200.121 26.1108 200.841 26.1087 201.562 26.1088C202.241 26.1089 202.92 26.1065 203.598 26.1021C203.847 26.101 204.096 26.1007 204.344 26.1015C206.071 26.1337 206.071 26.1337 207.622 25.4822C208.113 24.987 208.312 24.6306 208.366 23.9437C208.316 23.2328 208.109 22.8165 207.577 22.3203C206.893 21.893 206.258 21.7765 205.45 21.7703C205.273 21.7684 205.096 21.7664 204.913 21.7644C204.719 21.7637 204.524 21.7629 204.33 21.7622C204.124 21.7605 203.918 21.7587 203.711 21.7568C203.036 21.7511 202.361 21.7483 201.686 21.7455C201.453 21.7444 201.22 21.7433 200.987 21.7422C199.892 21.737 198.797 21.7331 197.703 21.7309C196.441 21.7282 195.18 21.721 193.918 21.7101C192.942 21.7018 191.965 21.6978 190.988 21.6969C190.406 21.6963 189.823 21.6939 189.241 21.687C188.692 21.6807 188.144 21.6795 187.596 21.6823C187.395 21.6825 187.195 21.6808 186.994 21.677C185.972 21.659 185.265 21.6748 184.482 22.349C184.388 22.4464 184.294 22.5437 184.197 22.6441C183.737 23.1049 183.256 23.1635 182.614 23.1777C181.73 23.139 181.062 22.924 180.398 22.3543C179.777 21.6739 179.493 20.9481 179.548 20.0424C179.709 19.22 180.031 18.5736 180.682 18.0026C181.794 17.3765 182.934 17.2522 184.085 17.8581ZM183.943 29.29C183.943 30.7261 183.943 32.1621 183.943 33.6417C187.106 33.651 190.268 33.6585 193.431 33.6629C194.899 33.665 196.368 33.6679 197.836 33.6725C199.116 33.6766 200.396 33.6792 201.676 33.6801C202.354 33.6807 203.032 33.6819 203.709 33.6849C204.347 33.6877 204.985 33.6885 205.623 33.6879C205.857 33.688 206.091 33.6888 206.325 33.6904C206.645 33.6924 206.965 33.6919 207.285 33.6908C207.464 33.6912 207.643 33.6916 207.828 33.6919C208.774 33.5975 209.401 33.2461 210.032 32.5538C210.435 31.974 210.404 31.4664 210.316 30.7859C209.981 30.1202 209.56 29.7909 208.898 29.426C208.401 29.2672 208.014 29.2733 207.49 29.2736C207.389 29.2735 207.289 29.2734 207.185 29.2733C206.848 29.273 206.51 29.2738 206.172 29.2745C205.931 29.2746 205.689 29.2745 205.447 29.2745C204.79 29.2744 204.133 29.2752 203.476 29.2762C202.79 29.277 202.103 29.2771 201.417 29.2773C200.117 29.2777 198.817 29.2788 197.517 29.2802C196.037 29.2817 194.557 29.2824 193.077 29.2831C190.032 29.2845 186.988 29.287 183.943 29.29Z" fill="#11479D"/>
<path d="M109.965 14.2712C110.722 14.6886 111.206 15.2412 111.551 16.0051C111.724 17.0916 111.576 17.7812 110.922 18.6824C110.6 21.158 110.694 23.6678 110.639 26.1621C119.248 26.1621 127.857 26.1621 136.728 26.1621C136.728 23.6938 136.728 21.2255 136.728 18.6824C137.851 18.6824 138.974 18.6824 140.131 18.6824C140.131 24.6512 140.131 30.6199 140.131 36.7695C139.101 36.7695 138.072 36.7695 137.011 36.7695C135.848 34.538 136.728 31.7847 136.728 29.2899C128.118 29.2899 119.509 29.2899 110.639 29.2899C110.639 31.8479 110.639 34.406 110.639 37.0415C109.329 37.0415 108.018 37.0415 106.669 37.0415C106.668 36.4993 106.667 35.9571 106.667 35.3984C106.664 33.6066 106.658 31.8149 106.65 30.0231C106.645 28.9368 106.641 27.8505 106.641 26.7641C106.64 25.817 106.638 24.8699 106.632 23.9228C106.629 23.4216 106.627 22.9204 106.628 22.4191C106.629 21.8588 106.625 21.2986 106.62 20.7383C106.622 20.5731 106.623 20.4078 106.624 20.2376C106.612 19.374 106.543 18.789 105.984 18.0949C105.606 17.5744 105.633 16.9848 105.676 16.3706C105.894 15.505 106.28 14.9493 107.059 14.4406C107.987 13.9254 108.976 13.853 109.965 14.2712Z" fill="#11479D"/>
<path d="M215.42 18.5464C218.491 18.54 221.563 18.5352 224.634 18.5323C226.061 18.5309 227.487 18.529 228.913 18.5258C230.157 18.5231 231.401 18.5214 232.645 18.5208C233.303 18.5204 233.961 18.5196 234.619 18.5176C235.24 18.5157 235.86 18.5152 236.481 18.5156C236.708 18.5155 236.934 18.515 237.16 18.5139C240.567 18.4989 243.467 19.1361 246.046 21.4022C247.897 23.2447 248.673 25.499 248.648 28.0171C248.575 30.51 247.439 32.6162 245.587 34.3454C243.341 36.2071 240.668 36.7925 237.775 36.7844C237.584 36.7844 237.393 36.7844 237.201 36.7845C236.792 36.7846 236.382 36.7845 235.972 36.784C235.323 36.7835 234.674 36.7848 234.025 36.7865C233.915 36.7867 233.805 36.787 233.692 36.7873C233.468 36.7879 233.243 36.7884 233.019 36.789C231.509 36.7928 229.999 36.7956 228.49 36.7932C227.47 36.7916 226.449 36.793 225.429 36.7976C224.89 36.7999 224.351 36.8008 223.812 36.7981C223.305 36.7956 222.798 36.7969 222.291 36.8011C222.017 36.8024 221.744 36.7997 221.471 36.7968C220.504 36.8089 219.912 36.8949 219.187 37.5332C218.656 37.9823 217.943 37.9103 217.274 37.9041C216.409 37.8114 215.848 37.3638 215.287 36.7524C214.702 35.9707 214.77 35.115 214.853 34.1855C215.088 33.4471 215.635 32.9892 216.271 32.5536C217.096 32.1802 218.004 32.1113 218.878 32.3895C219.357 32.6115 219.748 32.843 220.099 33.2336C220.099 33.3234 220.099 33.4131 220.099 33.5056C222.528 33.512 224.958 33.5167 227.387 33.5197C228.515 33.5211 229.643 33.523 230.771 33.5261C231.755 33.5288 232.739 33.5306 233.723 33.5312C234.244 33.5315 234.764 33.5323 235.284 33.5343C235.867 33.5366 236.45 33.5366 237.032 33.5365C237.203 33.5374 237.373 33.5384 237.548 33.5394C239.006 33.536 240.398 33.4413 241.704 32.7831C241.863 32.7051 242.022 32.6271 242.186 32.5467C243.621 31.7152 244.402 30.5327 244.912 29.0178C245.28 27.5152 245.021 26.0844 244.221 24.751C243.322 23.4115 241.95 22.4065 240.335 22.001C239.142 21.7736 237.958 21.7683 236.748 21.7668C236.514 21.7656 236.281 21.7642 236.047 21.7627C235.418 21.759 234.788 21.7569 234.159 21.7551C233.499 21.753 232.84 21.7494 232.18 21.7459C230.934 21.7395 229.687 21.7345 228.44 21.73C227.02 21.7248 225.599 21.7181 224.179 21.7113C221.259 21.6972 218.34 21.6851 215.42 21.6742C215.231 19.533 215.231 19.533 215.42 18.5464Z" fill="#F84D6F"/>
<path d="M263.77 18.5469C264.53 19.149 265.209 19.792 265.879 20.4848C266.029 20.6388 266.029 20.6388 266.182 20.7959C266.793 21.4249 267.398 22.0591 267.995 22.701C268.378 23.1106 268.768 23.5147 269.158 23.9186C269.762 24.5442 270.359 25.1748 270.952 25.8098C271.344 26.2249 271.739 26.6359 272.135 27.0464C272.739 27.6721 273.337 28.3027 273.93 28.9376C274.321 29.3527 274.717 29.7637 275.113 30.1743C275.719 30.8027 276.32 31.4356 276.916 32.0734C277.287 32.4684 277.662 32.8598 278.037 33.2511C278.549 33.7852 279.055 34.3238 279.551 34.8719C280.005 35.3724 280.466 35.8667 280.926 36.362C280.88 36.4966 280.833 36.6312 280.785 36.7699C276.864 37.1235 276.864 37.1235 275.851 36.3636C275.416 35.9459 275.061 35.4803 274.725 34.9869C274.481 34.6368 274.191 34.3388 273.89 34.0331C273.791 33.9272 273.693 33.8213 273.591 33.7122C273.21 33.3061 272.824 32.9044 272.437 32.5032C272.329 32.3913 272.329 32.3913 272.219 32.2772C272.147 32.2026 272.075 32.1279 272.001 32.0511C271.121 31.1388 270.244 30.224 269.379 29.2988C268.748 28.6236 268.106 27.9574 267.464 27.2913C267.05 26.862 266.637 26.4319 266.225 26.001C266.035 25.803 266.035 25.803 265.842 25.601C265.377 25.1107 264.918 24.6149 264.461 24.1173C264.19 23.8256 264.19 23.8256 263.77 23.5786C263.226 24.0879 262.688 24.5979 262.193 25.151C261.695 25.7068 261.173 26.2402 260.651 26.7745C260.064 27.3746 259.484 27.9773 258.924 28.6008C258.357 29.2191 257.767 29.8184 257.184 30.4224C256.838 30.7809 256.493 31.1404 256.149 31.5002C256.033 31.6215 255.916 31.7428 255.797 31.8678C255.283 32.4101 254.777 32.9587 254.27 33.5061C260.868 33.5734 260.868 33.5734 267.598 33.6421C267.739 33.3728 267.739 33.3728 267.882 33.0981C268.684 32.3907 269.397 32.2159 270.465 32.2407C271.212 32.3192 271.733 32.5594 272.247 33.0854C272.932 33.9193 273.09 34.6289 272.986 35.682C272.693 36.5245 272.304 37.1704 271.497 37.6284C270.74 37.9589 269.972 37.9825 269.158 37.8579C268.596 37.6274 268.17 37.3184 267.74 36.9059C267.366 36.8634 267.366 36.8634 266.922 36.869C266.748 36.8677 266.574 36.8663 266.394 36.865C266.2 36.8649 266.006 36.8648 265.812 36.8647C265.609 36.8637 265.405 36.8625 265.201 36.8612C264.763 36.8588 264.324 36.8571 263.885 36.8561C263.192 36.8546 262.498 36.8511 261.805 36.8474C260.708 36.8417 259.612 36.8373 258.516 36.8335C256.552 36.8265 254.587 36.8181 252.623 36.8083C251.934 36.8049 251.244 36.8022 250.554 36.8002C250.125 36.7988 249.697 36.7969 249.268 36.7948C249.069 36.794 248.87 36.7934 248.671 36.793C248.399 36.7925 248.128 36.7911 247.857 36.7896C247.705 36.7891 247.553 36.7886 247.396 36.788C247.039 36.7699 247.039 36.7699 246.755 36.6339C246.938 36.2513 247.133 35.9631 247.435 35.6586C247.512 35.5801 247.589 35.5015 247.669 35.4206C247.75 35.3386 247.832 35.2565 247.916 35.172C248.085 35.0002 248.254 34.8283 248.422 34.6562C248.543 34.5333 248.543 34.5333 248.666 34.4079C248.913 34.1547 249.152 33.8961 249.387 33.6336C249.889 33.0765 250.411 32.5386 250.932 31.999C251.363 31.5525 251.791 31.1035 252.214 30.6503C252.778 30.047 253.35 29.4518 253.924 28.8574C254.35 28.4154 254.773 27.9708 255.192 27.5224C255.821 26.8494 256.46 26.1858 257.1 25.5224C257.701 24.8987 258.299 24.2721 258.897 23.6456C259.095 23.4388 259.292 23.2322 259.49 23.0256C260.09 22.3995 260.688 21.7723 261.28 21.1392C263.14 19.1512 263.14 19.1512 263.77 18.5469Z" fill="#F94D6F"/>
<path d="M310.702 18.5469C311.432 18.8969 311.914 19.4315 312.456 20.0003C312.546 20.0931 312.636 20.1859 312.729 20.2816C313.174 20.7425 313.611 21.2089 314.041 21.6827C314.516 22.2071 315.008 22.7156 315.505 23.2216C316.171 23.903 316.83 24.5891 317.479 25.2854C317.835 25.6651 318.194 26.0416 318.553 26.4175C318.619 26.4857 318.684 26.5539 318.751 26.6241C318.951 26.833 319.151 27.0417 319.351 27.2504C320.82 28.784 320.82 28.784 321.54 29.5538C322.034 30.0823 322.535 30.6052 323.037 31.1262C323.753 31.8682 324.461 32.6169 325.164 33.3701C325.371 33.5912 325.578 33.8122 325.785 34.0331C325.888 34.1435 325.991 34.254 326.097 34.3678C326.352 34.6368 326.609 34.9035 326.867 35.1688C326.939 35.2428 327.011 35.3168 327.085 35.3931C327.226 35.5382 327.368 35.6829 327.51 35.827C328 36.3316 328 36.3316 328 36.6339C327.408 36.918 326.66 36.8342 326.008 36.8474C325.727 36.8548 325.446 36.8694 325.165 36.8842C323.818 36.909 323.818 36.909 323.203 36.5088C322.882 36.2023 322.603 35.8913 322.328 35.546C322.179 35.3809 322.028 35.2164 321.877 35.053C321.798 34.9657 321.72 34.8784 321.64 34.7885C321.218 34.3295 320.78 33.8845 320.343 33.4381C319.3 32.3715 319.3 32.3715 318.855 31.8742C318.296 31.2511 317.705 30.6563 317.119 30.0567C316.542 29.4651 315.972 28.8676 315.409 28.2635C315.054 27.8838 314.695 27.5073 314.335 27.1314C314.238 27.0294 314.238 27.0294 314.138 26.9254C313.801 26.5734 313.464 26.2218 313.127 25.8703C312.402 25.1151 311.684 24.356 310.985 23.5786C310.549 23.7616 310.294 23.9498 309.993 24.3011C309.539 24.8154 309.071 25.3122 308.593 25.8055C307.979 26.4401 307.372 27.0795 306.77 27.7237C306.082 28.4567 305.384 29.1815 304.688 29.9079C303.156 31.4894 303.156 31.4894 301.68 33.1181C301.569 33.2462 301.458 33.3742 301.344 33.5061C302.988 33.5282 304.632 33.5451 306.277 33.5554C307.04 33.5604 307.804 33.5671 308.567 33.5779C309.304 33.5883 310.042 33.594 310.779 33.5964C311.06 33.5982 311.341 33.6016 311.622 33.6068C313.34 33.7085 313.34 33.7085 314.832 33.0365C314.972 32.8786 315.108 32.7183 315.239 32.5542C315.887 32.178 316.631 32.1851 317.366 32.2822C318.301 32.5617 318.896 32.9602 319.374 33.7829C319.716 34.5521 319.744 35.3142 319.457 36.107C319.112 36.898 318.665 37.3989 317.85 37.7591C317.007 38.0024 316.134 37.97 315.31 37.6879C314.955 37.4499 314.955 37.4499 314.702 37.1673C314.296 36.8291 314.08 36.8377 313.547 36.8372C313.375 36.8357 313.203 36.8342 313.025 36.8326C312.835 36.8337 312.645 36.8348 312.454 36.836C312.253 36.8353 312.053 36.8343 311.852 36.8331C311.42 36.831 310.988 36.8306 310.556 36.8315C309.873 36.833 309.19 36.8307 308.508 36.8278C307.428 36.8236 306.349 36.8221 305.27 36.8216C303.336 36.8207 301.402 36.8167 299.467 36.81C298.788 36.8077 298.109 36.807 297.43 36.8075C297.008 36.8075 296.587 36.8065 296.165 36.8052C295.969 36.8049 295.773 36.805 295.577 36.8056C295.31 36.8063 295.043 36.8053 294.776 36.8041C294.627 36.8041 294.477 36.8041 294.323 36.804C293.971 36.7699 293.971 36.7699 293.687 36.498C293.799 36.383 293.91 36.268 294.025 36.1495C294.967 35.178 294.967 35.178 295.885 34.1861C296.389 33.6267 296.914 33.0858 297.438 32.5433C297.977 31.9857 298.508 31.4227 299.037 30.8569C299.593 30.2645 300.156 29.6779 300.719 29.0907C301.046 28.7495 301.372 28.4079 301.698 28.0664C302.091 27.655 302.484 27.2438 302.878 26.8329C303.477 26.2069 304.075 25.5799 304.667 24.947C305.299 24.2715 305.941 23.6049 306.584 22.9385C307.12 22.3826 307.653 21.8243 308.186 21.2657C308.457 20.9824 308.728 20.6999 308.999 20.4178C309.069 20.3451 309.139 20.2724 309.211 20.1974C309.405 19.9958 309.599 19.7943 309.793 19.5929C310.11 19.2533 310.409 18.9058 310.702 18.5469Z" fill="#F94D6F"/>
<path d="M146.981 15.6228C147.653 15.9945 148.204 16.6079 148.446 17.3201C148.611 18.2213 148.535 18.9575 148.071 19.7706C147.851 20.0706 147.628 20.3189 147.362 20.5866C147.268 20.5866 147.175 20.5866 147.078 20.5866C147.087 22.0419 147.098 23.4971 147.112 24.9524C147.118 25.6281 147.124 26.3039 147.128 26.9797C147.131 27.6322 147.137 28.2847 147.144 28.9372C147.147 29.1858 147.148 29.4344 147.149 29.683C147.15 30.032 147.154 30.3808 147.159 30.7298C147.159 30.883 147.159 30.883 147.158 31.0393C147.174 31.8743 147.347 32.5392 147.982 33.1489C148.629 33.5327 149.262 33.5232 150.009 33.525C150.102 33.5254 150.195 33.5258 150.291 33.5263C150.602 33.5274 150.913 33.5276 151.224 33.5278C151.447 33.5285 151.671 33.5292 151.894 33.5299C152.5 33.5317 153.106 33.5325 153.712 33.5332C154.091 33.5336 154.47 33.5341 154.849 33.5347C156.035 33.5366 157.221 33.5379 158.407 33.5384C159.775 33.539 161.143 33.5414 162.511 33.5454C163.569 33.5483 164.627 33.5497 165.685 33.5498C166.317 33.55 166.949 33.5508 167.58 33.5532C168.175 33.5555 168.769 33.5558 169.363 33.5546C169.581 33.5545 169.799 33.555 170.016 33.5564C170.314 33.5581 170.612 33.5573 170.91 33.5559C171.077 33.5561 171.243 33.5563 171.415 33.5565C172.125 33.4812 172.677 33.2695 173.225 32.8161C173.553 32.2381 173.532 31.7289 173.528 31.0799C173.531 30.8788 173.531 30.8788 173.533 30.6737C173.537 30.2314 173.537 29.7893 173.537 29.347C173.54 29.04 173.542 28.733 173.545 28.4261C173.551 27.6187 173.554 26.8115 173.556 26.0041C173.559 25.1801 173.564 24.356 173.57 23.532C173.581 21.9155 173.588 20.2991 173.593 18.6827C174.763 18.6827 175.932 18.6827 177.138 18.6827C177.141 20.183 177.143 21.6834 177.145 23.1837C177.146 23.8807 177.147 24.5776 177.148 25.2745C177.15 25.9491 177.151 26.6236 177.151 27.2982C177.151 27.5535 177.152 27.8088 177.153 28.0641C177.156 29.3335 177.146 30.6 177.079 31.868C177.074 31.9676 177.069 32.0672 177.064 32.1698C176.972 33.6899 176.318 34.6684 175.153 35.6818C173.624 36.7529 171.946 36.8295 170.118 36.8204C169.884 36.8207 169.65 36.8212 169.416 36.8219C168.783 36.8232 168.151 36.8219 167.518 36.8201C166.854 36.8185 166.191 36.8191 165.527 36.8194C164.412 36.8195 163.298 36.818 162.184 36.8155C160.898 36.8126 159.612 36.8121 158.326 36.813C157.085 36.8137 155.845 36.813 154.605 36.8114C154.079 36.8108 153.552 36.8107 153.026 36.811C152.405 36.8112 151.785 36.8101 151.164 36.808C150.937 36.8074 150.71 36.8073 150.483 36.8077C148.445 36.8106 146.67 36.629 145.111 35.2313C143.611 33.6575 143.635 31.8495 143.637 29.8319C143.637 29.4425 143.635 29.0532 143.633 28.6639C143.626 27.558 143.622 26.4521 143.622 25.3461C143.621 24.6673 143.617 23.9886 143.612 23.3098C143.611 23.0519 143.611 22.794 143.611 22.5361C143.612 22.1761 143.61 21.8163 143.607 21.4563C143.608 21.3503 143.609 21.2442 143.61 21.1349C143.599 20.4549 143.46 20.1198 142.967 19.6346C142.506 18.9398 142.586 18.1139 142.683 17.3228C143.007 16.5061 143.603 15.9122 144.43 15.5442C145.252 15.2728 146.181 15.2892 146.981 15.6228Z" fill="#11479E"/>
<path d="M274.192 18.1171C274.404 18.2744 274.404 18.2744 274.546 18.4104C274.926 18.4254 275.302 18.4315 275.683 18.4319C275.803 18.4326 275.924 18.4332 276.048 18.4339C276.455 18.436 276.862 18.4372 277.269 18.4383C277.56 18.4396 277.85 18.441 278.141 18.4424C278.932 18.4461 279.724 18.4489 280.515 18.4516C281.342 18.4546 282.168 18.4583 282.994 18.462C284.56 18.4688 286.126 18.4749 287.691 18.4807C289.473 18.4875 291.255 18.4949 293.037 18.5025C296.704 18.518 300.371 18.5325 304.038 18.5464C304.197 19.0942 304.2 19.6217 304.197 20.1868C304.198 20.2847 304.198 20.3826 304.199 20.4835C304.198 20.9163 304.181 21.2607 304.038 21.6742C299.125 21.6742 294.212 21.6742 289.15 21.6742C289.15 26.6108 289.15 31.5473 289.15 36.6334C288.813 36.795 288.604 36.787 288.228 36.7875C288.04 36.7878 288.04 36.7878 287.847 36.788C287.716 36.7875 287.584 36.787 287.449 36.7864C287.317 36.787 287.185 36.7875 287.05 36.788C286.924 36.7879 286.798 36.7877 286.669 36.7875C286.553 36.7873 286.438 36.7872 286.319 36.787C286.031 36.7694 286.031 36.7694 285.747 36.6334C285.747 31.6969 285.747 26.7604 285.747 21.6742C283.96 21.6798 282.174 21.6854 280.333 21.6912C279.769 21.6909 279.206 21.6906 278.625 21.6902C278.118 21.6938 278.118 21.6938 277.612 21.6985C277.387 21.7001 277.162 21.7 276.937 21.6987C276.595 21.6971 276.254 21.7005 275.912 21.7051C275.763 21.7026 275.763 21.7026 275.61 21.7001C275.217 21.7097 274.916 21.736 274.617 21.9917C274.442 22.196 274.28 22.4108 274.12 22.6262C273.333 23.1126 272.533 23.2561 271.614 23.1165C270.701 22.888 270.116 22.4046 269.583 21.6742C269.201 20.8716 269.18 20.0548 269.441 19.2178C269.8 18.3944 270.506 17.8811 271.338 17.5264C272.446 17.3798 273.266 17.5027 274.192 18.1171Z" fill="#F84D6F"/>
<path d="M109.965 14.2712C110.722 14.6886 111.206 15.2412 111.551 16.0051C111.724 17.0916 111.576 17.7812 110.922 18.6824C110.748 19.61 110.756 20.539 110.751 21.4793C110.75 21.6479 110.749 21.8166 110.747 21.9903C110.743 22.4496 110.74 22.9089 110.737 23.3682C110.734 23.8494 110.731 24.3305 110.727 24.8117C110.72 25.7215 110.713 26.6312 110.707 27.541C110.7 28.5773 110.692 29.6136 110.684 30.6499C110.668 32.7805 110.653 34.911 110.639 37.0415C109.329 37.0415 108.018 37.0415 106.669 37.0415C106.668 36.4993 106.667 35.9571 106.667 35.3984C106.664 33.6066 106.658 31.8149 106.65 30.0231C106.645 28.9368 106.641 27.8505 106.641 26.7641C106.64 25.817 106.638 24.8699 106.632 23.9228C106.629 23.4216 106.627 22.9204 106.628 22.4191C106.629 21.8588 106.625 21.2986 106.62 20.7383C106.622 20.5731 106.623 20.4078 106.624 20.2376C106.612 19.374 106.543 18.789 105.984 18.0949C105.606 17.5744 105.633 16.9848 105.676 16.3706C105.894 15.505 106.28 14.9493 107.059 14.4406C107.987 13.9254 108.976 13.853 109.965 14.2712Z" fill="#F84D70"/>
<path d="M164.92 48.8015C166.979 48.8015 169.037 48.8015 171.159 48.8015C171.159 49.0708 171.159 49.34 171.159 49.6175C171.037 49.6552 170.916 49.6929 170.791 49.7317C170.635 49.7809 170.478 49.8302 170.317 49.881C170.16 49.9299 170.004 49.9788 169.843 50.0292C169.474 50.1259 169.474 50.1259 169.315 50.2974C169.293 50.5791 169.28 50.8614 169.27 51.1437C169.265 51.298 169.26 51.4522 169.254 51.6112C169.245 51.9075 169.245 51.9075 169.236 52.2098C169.215 52.8353 169.195 53.4608 169.174 54.1052C171.513 54.1052 173.853 54.1052 176.263 54.1052C176.263 52.8038 176.263 51.5023 176.263 50.1614C175.748 50.0268 175.234 49.8922 174.703 49.7535C174.563 49.7086 174.423 49.6637 174.278 49.6175C174.278 49.3482 174.278 49.0789 174.278 48.8015C176.383 48.8015 178.489 48.8015 180.658 48.8015C180.658 49.0708 180.658 49.34 180.658 49.6175C180.381 49.7086 180.103 49.7992 179.825 49.8895C179.593 49.9652 179.593 49.9652 179.357 50.0424C178.957 50.1614 178.957 50.1614 178.673 50.1614C178.673 53.3478 178.673 56.5341 178.673 59.8169C179.235 59.9516 179.796 60.0862 180.375 60.2249C180.468 60.2698 180.562 60.3147 180.658 60.3609C180.658 60.5853 180.658 60.8097 180.658 61.0409C178.553 61.0409 176.447 61.0409 174.278 61.0409C174.278 60.8165 174.278 60.5921 174.278 60.3609C174.555 60.2698 174.833 60.1792 175.111 60.0889C175.266 60.0384 175.42 59.988 175.58 59.9359C175.979 59.8169 175.979 59.8169 176.263 59.8169C176.263 58.336 176.263 56.855 176.263 55.3292C173.923 55.3292 171.584 55.3292 169.174 55.3292C169.22 56.7653 169.267 58.2014 169.315 59.681C169.69 59.8156 170.064 59.9502 170.45 60.0889C170.686 60.1788 170.923 60.269 171.159 60.3609C171.159 60.5853 171.159 60.8097 171.159 61.0409C169.1 61.0409 167.041 61.0409 164.92 61.0409C164.92 60.8165 164.92 60.5921 164.92 60.3609C165.092 60.2964 165.265 60.2319 165.443 60.1654C165.54 60.1291 165.637 60.0929 165.737 60.0555C166.076 59.9459 166.412 59.8816 166.763 59.8169C166.766 58.5982 166.769 57.3794 166.771 56.1607C166.771 55.5948 166.772 55.0289 166.774 54.463C166.775 53.9172 166.776 53.3714 166.777 52.8256C166.777 52.6171 166.777 52.4085 166.778 52.2C166.779 51.9085 166.779 51.6171 166.779 51.3257C166.78 51.1596 166.78 50.9935 166.78 50.8224C166.791 50.4408 166.791 50.4408 166.621 50.1614C166.339 50.0549 166.051 49.9602 165.762 49.8725C165.605 49.8244 165.449 49.7764 165.287 49.7269C165.166 49.6908 165.045 49.6547 164.92 49.6175C164.92 49.3482 164.92 49.0789 164.92 48.8015Z" fill="#707070"/>
<path d="M238.224 48.8014C239.212 48.7909 240.201 48.7838 241.189 48.779C241.524 48.7769 241.859 48.7741 242.195 48.7706C247.575 48.7149 247.575 48.7149 249.142 50.0253C249.772 50.7741 249.915 51.533 249.851 52.4732C249.659 53.4256 249.252 54.0762 248.433 54.6491C247.878 54.9496 247.313 55.2152 246.731 55.465C246.839 55.5753 246.947 55.6856 247.059 55.7992C247.768 56.5268 248.464 57.2553 249.115 58.0319C249.313 58.2643 249.511 58.4966 249.709 58.7289C249.786 58.823 249.864 58.9171 249.943 59.0141C250.567 59.703 251.254 59.8976 252.163 60.126C252.545 60.2248 252.545 60.2248 252.687 60.3608C252.692 60.5874 252.693 60.8142 252.687 61.0407C252.087 61.0526 251.487 61.0598 250.888 61.0662C250.718 61.0697 250.548 61.0731 250.373 61.0766C250.209 61.0779 250.045 61.0792 249.876 61.0806C249.725 61.0827 249.574 61.0848 249.419 61.087C248.794 61.0179 248.428 60.7754 248.008 60.3374C247.867 60.1638 247.867 60.1638 247.724 59.9868C247.187 59.3381 246.634 58.7071 246.067 58.0829C245.991 57.9995 245.915 57.9161 245.837 57.8302C245.763 57.7488 245.689 57.6674 245.613 57.5835C245.541 57.5037 245.469 57.4238 245.394 57.3416C245.239 57.1713 245.083 57.0019 244.927 56.8332C244.849 56.7484 244.771 56.6637 244.69 56.5763C244.62 56.5 244.549 56.4237 244.476 56.3451C244.321 56.145 244.321 56.145 244.321 55.873C243.76 55.8281 243.198 55.7832 242.62 55.737C242.62 57.0385 242.62 58.3399 242.62 59.6808C242.994 59.8154 243.368 59.9501 243.754 60.0888C243.991 60.1786 244.227 60.2689 244.463 60.3608C244.463 60.5852 244.463 60.8095 244.463 61.0407C242.404 61.0407 240.345 61.0407 238.224 61.0407C238.224 60.8163 238.224 60.592 238.224 60.3608C238.397 60.2963 238.569 60.2317 238.747 60.1653C238.844 60.129 238.941 60.0927 239.041 60.0553C239.38 59.9457 239.716 59.8814 240.067 59.8168C240.071 58.598 240.073 57.3793 240.075 56.1605C240.075 55.5946 240.076 55.0287 240.078 54.4629C240.08 53.9171 240.08 53.3713 240.081 52.8254C240.081 52.6169 240.082 52.4084 240.082 52.1998C240.083 51.9084 240.084 51.617 240.083 51.3255C240.084 51.1594 240.084 50.9933 240.084 50.8222C240.095 50.4407 240.095 50.4407 239.926 50.1613C239.643 50.0547 239.356 49.96 239.066 49.8723C238.909 49.8243 238.753 49.7762 238.591 49.7268C238.47 49.6906 238.349 49.6545 238.224 49.6173C238.224 49.3481 238.224 49.0788 238.224 48.8014ZM242.478 50.0253C242.474 50.6619 242.472 51.2986 242.47 51.9352C242.469 52.152 242.468 52.3687 242.467 52.5854C242.465 52.8963 242.465 53.2072 242.464 53.5181C242.463 53.6156 242.462 53.713 242.462 53.8134C242.462 54.0467 242.469 54.28 242.478 54.5131C242.77 54.7932 243.362 54.6817 243.763 54.6831C245.108 54.6824 246.023 54.4897 247.015 53.5611C247.429 52.926 247.385 52.2455 247.299 51.5212C246.946 50.7777 246.48 50.504 245.739 50.1613C245.326 50.0386 244.958 50.0092 244.527 50.012C244.407 50.0125 244.288 50.0129 244.164 50.0133C244.041 50.0145 243.917 50.0156 243.789 50.0168C243.663 50.0174 243.537 50.018 243.408 50.0187C243.098 50.0203 242.788 50.0225 242.478 50.0253Z" fill="#707070"/>
<path d="M273.672 48.8013C274.668 48.7944 275.664 48.7896 276.66 48.7864C276.998 48.785 277.336 48.7832 277.674 48.7808C278.163 48.7775 278.652 48.776 279.141 48.7748C279.29 48.7734 279.438 48.772 279.591 48.7705C281.35 48.7703 282.915 48.9712 284.43 49.8553C284.934 50.3678 285.142 50.8885 285.17 51.5934C285.108 52.5667 284.787 53.1136 284.049 53.7906C283.571 54.1232 283.153 54.313 282.604 54.513C282.784 54.5577 282.784 54.5577 282.968 54.6033C284.156 54.922 285.055 55.2697 285.857 56.1874C286.233 57.1008 286.258 58.0877 285.865 59.0008C285.239 59.9695 284.313 60.5492 283.174 60.8407C282.135 61.0638 281.13 61.0757 280.069 61.0673C279.885 61.0669 279.701 61.0665 279.512 61.0661C279.029 61.0651 278.545 61.0624 278.062 61.0594C277.567 61.0566 277.071 61.0553 276.576 61.054C275.608 61.0511 274.64 61.0464 273.672 61.0407C273.672 60.8163 273.672 60.5919 273.672 60.3607C273.844 60.2962 274.017 60.2317 274.194 60.1652C274.292 60.1289 274.389 60.0927 274.489 60.0553C274.828 59.9457 275.164 59.8814 275.515 59.8168C275.518 58.598 275.521 57.3792 275.522 56.1605C275.523 55.5946 275.524 55.0287 275.526 54.4628C275.527 53.917 275.528 53.3712 275.528 52.8254C275.529 52.6169 275.529 52.4083 275.53 52.1998C275.531 51.9084 275.531 51.6169 275.531 51.3255C275.531 51.1594 275.532 50.9933 275.532 50.8222C275.543 50.4406 275.543 50.4406 275.373 50.1613C275.091 50.0547 274.803 49.96 274.513 49.8723C274.357 49.8242 274.2 49.7762 274.039 49.7267C273.918 49.6906 273.796 49.6545 273.672 49.6173C273.672 49.348 273.672 49.0787 273.672 48.8013ZM277.925 50.0253C277.925 51.4165 277.925 52.8077 277.925 54.241C280.196 54.3694 280.196 54.3694 282.188 53.4846C282.708 52.8573 282.686 52.3013 282.604 51.5212C282.464 51.0055 282.228 50.7013 281.778 50.3902C280.589 49.8188 279.213 49.9905 277.925 50.0253ZM277.925 55.329C277.925 56.8548 277.925 58.3807 277.925 59.9527C278.455 59.964 278.984 59.9752 279.529 59.9867C279.774 59.9942 279.774 59.9942 280.025 60.0018C281.064 60.0123 281.955 59.8668 282.888 59.4088C283.367 58.9269 283.556 58.4666 283.611 57.7976C283.576 57.0756 283.363 56.4742 282.844 55.9495C281.711 55.3178 280.485 55.3085 279.21 55.3205C278.786 55.3233 278.362 55.3261 277.925 55.329Z" fill="#707070"/>
<path d="M307.984 48.8013C309.033 48.7909 310.082 48.7838 311.131 48.7789C311.487 48.7769 311.842 48.7741 312.198 48.7706C317.226 48.7216 317.226 48.7216 319.123 49.7193C319.218 49.7673 319.312 49.8153 319.409 49.8647C320.873 50.6358 321.582 51.686 322.137 53.1961C322.558 54.7293 322.423 56.5557 321.707 57.9856C320.646 59.6325 319.032 60.5139 317.114 60.9576C316.269 61.1037 315.431 61.0905 314.575 61.0805C314.384 61.0798 314.192 61.0792 314.001 61.0788C313.503 61.0773 313.005 61.0733 312.507 61.0687C311.997 61.0645 311.486 61.0627 310.976 61.0606C309.978 61.0563 308.981 61.0493 307.984 61.0407C307.984 60.8163 307.984 60.5919 307.984 60.3607C308.157 60.2962 308.329 60.2317 308.507 60.1653C308.604 60.129 308.701 60.0927 308.801 60.0553C309.14 59.9457 309.476 59.8814 309.827 59.8168C309.831 58.598 309.833 57.3792 309.835 56.1605C309.835 55.5946 309.836 55.0287 309.838 54.4628C309.84 53.917 309.84 53.3712 309.841 52.8254C309.841 52.6169 309.842 52.4083 309.842 52.1998C309.843 51.9084 309.844 51.6169 309.843 51.3255C309.844 51.1594 309.844 50.9933 309.844 50.8222C309.855 50.4406 309.855 50.4406 309.686 50.1613C309.403 50.0547 309.116 49.96 308.826 49.8723C308.669 49.8242 308.513 49.7762 308.351 49.7267C308.23 49.6906 308.109 49.6545 307.984 49.6173C307.984 49.348 307.984 49.0788 307.984 48.8013ZM312.238 50.0253C312.238 53.3013 312.238 56.5774 312.238 59.9528C315.713 60.1116 315.713 60.1116 318.618 58.7288C319.571 57.7103 319.84 56.2231 319.792 54.8923C319.618 53.2345 319.001 51.9787 317.657 50.9098C315.969 49.8125 314.291 50.0253 312.238 50.0253Z" fill="#707070"/>
<path d="M202.21 48.8013C203.259 48.7909 204.308 48.7838 205.357 48.7789C205.712 48.7769 206.068 48.7741 206.424 48.7706C211.452 48.7216 211.452 48.7216 213.349 49.7193C213.444 49.7673 213.538 49.8153 213.635 49.8647C215.099 50.6358 215.808 51.686 216.363 53.1961C216.784 54.7293 216.649 56.5557 215.932 57.9856C214.872 59.6325 213.258 60.5139 211.339 60.9576C210.495 61.1037 209.657 61.0905 208.801 61.0805C208.609 61.0798 208.418 61.0792 208.226 61.0788C207.729 61.0773 207.231 61.0733 206.733 61.0687C206.222 61.0645 205.712 61.0627 205.201 61.0606C204.204 61.0563 203.207 61.0493 202.21 61.0407C202.21 60.8163 202.21 60.5919 202.21 60.3607C202.382 60.2962 202.555 60.2317 202.733 60.1653C202.83 60.129 202.927 60.0927 203.027 60.0553C203.366 59.9457 203.702 59.8814 204.053 59.8168C204.056 58.598 204.059 57.3792 204.061 56.1605C204.061 55.5946 204.062 55.0287 204.064 54.4628C204.065 53.917 204.066 53.3712 204.067 52.8254C204.067 52.6169 204.067 52.4083 204.068 52.1998C204.069 51.9084 204.069 51.6169 204.069 51.3255C204.07 51.1594 204.07 50.9933 204.07 50.8222C204.081 50.4406 204.081 50.4406 203.911 50.1613C203.629 50.0547 203.341 49.96 203.052 49.8723C202.895 49.8242 202.739 49.7762 202.577 49.7267C202.456 49.6906 202.335 49.6545 202.21 49.6173C202.21 49.348 202.21 49.0788 202.21 48.8013ZM206.464 50.0253C206.464 53.3013 206.464 56.5774 206.464 59.9528C209.938 60.1116 209.938 60.1116 212.844 58.7288C213.797 57.7103 214.066 56.2231 214.018 54.8923C213.844 53.2345 213.227 51.9787 211.883 50.9098C210.195 49.8125 208.517 50.0253 206.464 50.0253Z" fill="#707070"/>
<path d="M221.209 48.8015C225.046 48.8015 228.883 48.8015 232.836 48.8015C232.836 49.8337 232.836 50.8659 232.836 51.9294C232.368 51.9294 231.9 51.9294 231.418 51.9294C231.231 51.3459 231.044 50.7625 230.851 50.1614C229.073 50.1166 227.295 50.0717 225.463 50.0255C225.463 51.3718 225.463 52.7181 225.463 54.1052C226.586 54.1052 227.709 54.1052 228.866 54.1052C229.077 53.2974 229.077 53.2974 229.291 52.4733C229.666 52.4733 230.04 52.4733 230.426 52.4733C230.426 53.9543 230.426 55.4353 230.426 56.9611C230.051 56.9611 229.677 56.9611 229.291 56.9611C229.011 56.2206 229.011 56.2206 228.724 55.4652C227.648 55.4203 226.572 55.3754 225.463 55.3292C225.463 56.855 225.463 58.3809 225.463 59.9529C227.475 59.9081 229.487 59.8632 231.56 59.8169C231.7 59.413 231.841 59.0091 231.985 58.593C232.08 58.321 232.174 58.049 232.269 57.7771C232.69 57.7771 233.111 57.7771 233.545 57.7771C233.545 58.8541 233.545 59.9312 233.545 61.0409C229.474 61.0409 225.404 61.0409 221.209 61.0409C221.209 60.8165 221.209 60.5921 221.209 60.3609C221.382 60.2964 221.555 60.2319 221.732 60.1654C221.829 60.1291 221.926 60.0929 222.026 60.0555C222.366 59.9459 222.701 59.8816 223.053 59.8169C223.056 58.5982 223.059 57.3794 223.06 56.1607C223.061 55.5948 223.062 55.0289 223.063 54.463C223.065 53.9172 223.066 53.3714 223.066 52.8256C223.066 52.6171 223.067 52.4085 223.068 52.2C223.069 51.9085 223.069 51.6171 223.069 51.3257C223.069 51.1596 223.069 50.9935 223.07 50.8224C223.081 50.4408 223.081 50.4408 222.911 50.1614C222.628 50.0549 222.341 49.9602 222.051 49.8725C221.895 49.8244 221.738 49.7764 221.577 49.7269C221.456 49.6908 221.334 49.6547 221.209 49.6175C221.209 49.3482 221.209 49.0789 221.209 48.8015Z" fill="#707070"/>
<path d="M296.651 48.6521C297.142 48.6587 297.142 48.6587 297.634 48.6654C298.428 50.1633 299.183 51.6762 299.916 53.2025C300.092 53.569 300.27 53.935 300.447 54.301C300.958 55.3553 301.465 56.4094 301.934 57.4816C302.001 57.6323 302.068 57.7831 302.138 57.9384C302.256 58.2053 302.37 58.4736 302.479 58.7437C302.856 59.5867 303.275 59.8998 304.154 60.2587C304.248 60.2924 304.343 60.3261 304.44 60.3608C304.44 60.5852 304.44 60.8096 304.44 61.0407C302.568 61.0407 300.696 61.0407 298.768 61.0407C298.768 60.8164 298.768 60.592 298.768 60.3608C298.945 60.2916 299.122 60.2239 299.3 60.1568C299.399 60.1189 299.497 60.0811 299.599 60.042C299.902 59.9528 299.902 59.9528 300.47 59.9528C300.002 58.9655 299.534 57.9782 299.052 56.961C297.32 56.961 295.589 56.961 293.806 56.961C293.384 57.8585 292.963 58.7561 292.529 59.6808C293.044 59.9052 293.559 60.1296 294.089 60.3608C294.089 60.5852 294.089 60.8096 294.089 61.0407C292.498 61.0407 290.907 61.0407 289.268 61.0407C289.268 60.8164 289.268 60.592 289.268 60.3608C289.405 60.3203 289.405 60.3203 289.544 60.279C290.391 59.9615 290.779 59.6317 291.165 58.8372C291.207 58.7539 291.248 58.6705 291.29 58.5846C291.422 58.3164 291.551 58.0468 291.679 57.7769C291.765 57.5995 291.85 57.4221 291.936 57.2447C292.157 56.7878 292.374 56.3295 292.59 55.8705C292.728 55.5764 292.867 55.2825 293.006 54.9887C293.405 54.1461 293.801 53.3029 294.187 52.4551C295.908 48.6857 295.908 48.6857 296.651 48.6521ZM296.358 51.1133C296.075 51.7304 295.792 52.3477 295.51 52.9651C295.413 53.1752 295.317 53.3854 295.221 53.5955C295.083 53.8968 294.945 54.1983 294.807 54.4998C294.763 54.5943 294.72 54.6888 294.675 54.7861C294.464 55.1795 294.464 55.1795 294.373 55.601C295.73 55.601 297.087 55.601 298.485 55.601C298.289 55.1635 298.093 54.7259 297.891 54.2751C297.421 53.2237 296.954 52.1711 296.5 51.1133C296.453 51.1133 296.406 51.1133 296.358 51.1133Z" fill="#707070"/>
<path d="M262.337 48.6521C262.829 48.6587 262.829 48.6587 263.321 48.6654C264.115 50.1633 264.869 51.6762 265.603 53.2025C265.779 53.569 265.957 53.935 266.134 54.301C266.645 55.3553 267.152 56.4094 267.621 57.4816C267.688 57.6323 267.755 57.7831 267.824 57.9384C267.942 58.2053 268.057 58.4736 268.166 58.7437C268.542 59.5867 268.962 59.8998 269.841 60.2587C269.935 60.2924 270.029 60.3261 270.126 60.3608C270.126 60.5852 270.126 60.8096 270.126 61.0407C268.255 61.0407 266.383 61.0407 264.455 61.0407C264.455 60.8164 264.455 60.592 264.455 60.3608C264.632 60.2916 264.809 60.2239 264.987 60.1568C265.085 60.1189 265.184 60.0811 265.286 60.042C265.589 59.9528 265.589 59.9528 266.156 59.9528C265.688 58.9655 265.221 57.9782 264.738 56.961C263.007 56.961 261.276 56.961 259.492 56.961C259.071 57.8585 258.65 58.7561 258.216 59.6808C258.731 59.9052 259.246 60.1296 259.776 60.3608C259.776 60.5852 259.776 60.8096 259.776 61.0407C258.185 61.0407 256.594 61.0407 254.955 61.0407C254.955 60.8164 254.955 60.592 254.955 60.3608C255.091 60.3203 255.091 60.3203 255.23 60.279C256.078 59.9615 256.466 59.6317 256.852 58.8372C256.893 58.7539 256.935 58.6705 256.977 58.5846C257.109 58.3164 257.237 58.0468 257.365 57.7769C257.451 57.5995 257.537 57.4221 257.623 57.2447C257.844 56.7878 258.061 56.3295 258.276 55.8705C258.415 55.5764 258.554 55.2825 258.693 54.9887C259.091 54.1461 259.488 53.3029 259.874 52.4551C261.595 48.6857 261.595 48.6857 262.337 48.6521ZM262.044 51.1133C261.761 51.7304 261.479 52.3477 261.196 52.9651C261.1 53.1752 261.004 53.3854 260.908 53.5955C260.769 53.8968 260.631 54.1983 260.494 54.4998C260.45 54.5943 260.407 54.6888 260.362 54.7861C260.151 55.1795 260.151 55.1795 260.059 55.601C261.416 55.601 262.773 55.601 264.171 55.601C263.975 55.1635 263.779 54.7259 263.578 54.2751C263.107 53.2237 262.641 52.1711 262.186 51.1133C262.139 51.1133 262.093 51.1133 262.044 51.1133Z" fill="#707070"/>
<path d="M184.345 48.8015C186.216 48.8015 188.088 48.8015 190.016 48.8015C190.016 49.0708 190.016 49.34 190.016 49.6175C189.244 49.8194 189.244 49.8194 188.457 50.0255C188.596 50.2259 188.735 50.4262 188.875 50.6266C188.999 50.806 189.124 50.9854 189.248 51.1648C189.61 51.6871 189.975 52.2079 190.342 52.7267C190.419 52.836 190.496 52.9452 190.576 53.0577C190.727 53.2717 190.878 53.4852 191.03 53.6983C191.099 53.7966 191.169 53.895 191.24 53.9963C191.301 54.0831 191.363 54.1698 191.426 54.2591C191.582 54.5242 191.656 54.7597 191.718 55.0572C192.128 54.6859 192.44 54.316 192.74 53.8582C192.823 53.7317 192.906 53.6053 192.992 53.4749C193.077 53.3436 193.163 53.2122 193.251 53.0768C193.42 52.8188 193.589 52.5608 193.759 52.3028C193.884 52.1116 193.884 52.1116 194.011 51.9165C194.425 51.2843 194.844 50.6549 195.262 50.0255C195.167 50.0059 195.072 49.9863 194.974 49.9662C194.022 49.7705 194.022 49.7705 193.703 49.6175C193.703 49.3482 193.703 49.0789 193.703 48.8015C195.294 48.8015 196.884 48.8015 198.524 48.8015C198.524 49.0708 198.524 49.34 198.524 49.6175C198.317 49.7087 198.11 49.7993 197.903 49.8895C197.788 49.9399 197.673 49.9904 197.554 50.0424C197.247 50.1614 197.247 50.1614 196.964 50.1614C196.906 50.2795 196.906 50.2795 196.847 50.4C196.681 50.7039 196.496 50.9644 196.284 51.2397C195.836 51.8242 195.398 52.4146 194.963 53.0075C194.775 53.2604 194.584 53.5114 194.391 53.7605C192.863 55.7343 192.406 57.2256 192.71 59.681C192.797 59.7085 192.884 59.7361 192.974 59.7645C193.089 59.8009 193.203 59.8373 193.321 59.8749C193.491 59.9288 193.491 59.9288 193.665 59.9839C194.014 60.0979 194.355 60.2242 194.695 60.3609C194.695 60.5853 194.695 60.8097 194.695 61.0409C192.543 61.0409 190.391 61.0409 188.173 61.0409C188.173 60.8165 188.173 60.5921 188.173 60.3609C188.371 60.2952 188.569 60.2302 188.767 60.1654C188.877 60.1291 188.987 60.0929 189.101 60.0555C189.451 59.9524 189.798 59.8835 190.158 59.8169C190.466 57.3502 189.999 55.9054 188.459 53.9346C187.977 53.3048 187.543 52.6444 187.101 51.9888C186.233 50.6167 186.233 50.6167 184.868 49.779C184.695 49.7257 184.522 49.6724 184.345 49.6175C184.345 49.3482 184.345 49.0789 184.345 48.8015Z" fill="#707070"/>
<path d="M138.405 48.8015C142.757 48.8015 147.108 48.8015 151.592 48.8015C151.592 49.8786 151.592 50.9556 151.592 52.0653C151.124 52.0653 150.656 52.0653 150.174 52.0653C150.033 51.3922 149.893 50.719 149.748 50.0255C148.532 50.0255 147.315 50.0255 146.062 50.0255C146.109 53.2566 146.155 56.4878 146.204 59.8169C146.812 59.9516 147.42 60.0862 148.047 60.2249C148.189 60.3609 148.189 60.3609 148.189 61.0409C146.036 61.0409 143.884 61.0409 141.666 61.0409C141.666 60.8165 141.666 60.5921 141.666 60.3609C141.864 60.3044 141.864 60.3044 142.065 60.2467C142.319 60.1728 142.319 60.1728 142.579 60.0974C142.833 60.0241 142.833 60.0241 143.093 59.9492C143.49 59.8565 143.49 59.8565 143.651 59.681C143.669 59.3807 143.677 59.0799 143.681 58.7792C143.682 58.685 143.683 58.5908 143.685 58.4937C143.689 58.181 143.693 57.8683 143.696 57.5555C143.699 57.3392 143.702 57.123 143.705 56.9067C143.713 56.3364 143.72 55.766 143.727 55.1957C143.734 54.6141 143.742 54.0326 143.75 53.451C143.765 52.3092 143.779 51.1673 143.793 50.0255C142.039 50.0928 142.039 50.0928 140.249 50.1614C140.061 50.7897 139.874 51.418 139.681 52.0653C139.26 52.0653 138.839 52.0653 138.405 52.0653C138.405 50.9883 138.405 49.9112 138.405 48.8015Z" fill="#707070"/>
<path d="M127.771 48.8015C129.877 48.8015 131.982 48.8015 134.151 48.8015C134.151 49.0708 134.151 49.34 134.151 49.6175C133.954 49.6716 133.954 49.6716 133.753 49.7269C133.583 49.7749 133.414 49.823 133.239 49.8725C133.069 49.9198 132.9 49.9671 132.725 50.0159C132.292 50.1153 132.292 50.1153 132.166 50.4334C132.153 50.7306 132.15 51.0282 132.15 51.3257C132.15 51.4172 132.15 51.5088 132.15 51.6031C132.15 51.9063 132.151 52.2095 132.153 52.5126C132.153 52.7226 132.153 52.9326 132.153 53.1426C132.154 53.6957 132.155 54.2488 132.157 54.8019C132.158 55.3662 132.159 55.9304 132.16 56.4947C132.161 57.6021 132.163 58.7095 132.166 59.8169C132.298 59.8448 132.429 59.8727 132.565 59.9014C132.734 59.938 132.904 59.9747 133.079 60.0124C133.249 60.0487 133.418 60.085 133.593 60.1224C134.01 60.2249 134.01 60.2249 134.151 60.3609C134.151 60.5853 134.151 60.8097 134.151 61.0409C132.046 61.0409 129.94 61.0409 127.771 61.0409C127.771 60.8165 127.771 60.5921 127.771 60.3609C127.969 60.2952 128.167 60.2302 128.365 60.1654C128.475 60.1291 128.585 60.0929 128.699 60.0555C129.045 59.9536 129.401 59.8851 129.756 59.8169C129.756 56.6306 129.756 53.4443 129.756 50.1614C128.914 49.9595 128.914 49.9595 128.055 49.7535C127.961 49.7086 127.867 49.6637 127.771 49.6175C127.771 49.3482 127.771 49.0789 127.771 48.8015Z" fill="#707070"/>
<path d="M116.712 48.8015C118.817 48.8015 120.923 48.8015 123.092 48.8015C123.092 49.0708 123.092 49.34 123.092 49.6175C122.895 49.6716 122.895 49.6716 122.694 49.7269C122.524 49.7749 122.354 49.823 122.179 49.8725C122.01 49.9198 121.841 49.9671 121.666 50.0159C121.232 50.1153 121.232 50.1153 121.107 50.4334C121.094 50.7306 121.09 51.0282 121.091 51.3257C121.091 51.4172 121.091 51.5088 121.091 51.6031C121.091 51.9063 121.092 52.2095 121.093 52.5126C121.094 52.7226 121.094 52.9326 121.094 53.1426C121.094 53.6957 121.096 54.2488 121.097 54.8019C121.099 55.3662 121.099 55.9304 121.1 56.4947C121.102 57.6021 121.104 58.7095 121.107 59.8169C121.239 59.8448 121.37 59.8727 121.505 59.9014C121.675 59.938 121.845 59.9747 122.02 60.0124C122.189 60.0487 122.359 60.085 122.533 60.1224C122.95 60.2249 122.95 60.2249 123.092 60.3609C123.092 60.5853 123.092 60.8097 123.092 61.0409C120.987 61.0409 118.881 61.0409 116.712 61.0409C116.712 60.8165 116.712 60.5921 116.712 60.3609C116.909 60.2952 117.107 60.2302 117.305 60.1654C117.416 60.1291 117.526 60.0929 117.639 60.0555C117.986 59.9536 118.342 59.8851 118.697 59.8169C118.697 56.6306 118.697 53.4443 118.697 50.1614C117.854 49.9595 117.854 49.9595 116.995 49.7535C116.902 49.7086 116.808 49.6637 116.712 49.6175C116.712 49.3482 116.712 49.0789 116.712 48.8015Z" fill="#707070"/>
<path d="M105.652 48.8015C107.758 48.8015 109.863 48.8015 112.033 48.8015C112.033 49.0708 112.033 49.34 112.033 49.6175C111.836 49.6716 111.836 49.6716 111.635 49.7269C111.465 49.7749 111.295 49.823 111.12 49.8725C110.951 49.9198 110.781 49.9671 110.607 50.0159C110.173 50.1153 110.173 50.1153 110.048 50.4334C110.035 50.7306 110.031 51.0282 110.032 51.3257C110.032 51.4172 110.032 51.5088 110.032 51.6031C110.032 51.9063 110.033 52.2095 110.034 52.5126C110.034 52.7226 110.034 52.9326 110.035 53.1426C110.035 53.6957 110.036 54.2488 110.038 54.8019C110.039 55.3662 110.04 55.9304 110.041 56.4947C110.042 57.6021 110.045 58.7095 110.048 59.8169C110.179 59.8448 110.311 59.8727 110.446 59.9014C110.616 59.938 110.786 59.9747 110.961 60.0124C111.13 60.0487 111.299 60.085 111.474 60.1224C111.891 60.2249 111.891 60.2249 112.033 60.3609C112.033 60.5853 112.033 60.8097 112.033 61.0409C109.927 61.0409 107.822 61.0409 105.652 61.0409C105.652 60.8165 105.652 60.5921 105.652 60.3609C105.85 60.2952 106.048 60.2302 106.246 60.1654C106.356 60.1291 106.467 60.0929 106.58 60.0555C106.926 59.9536 107.282 59.8851 107.637 59.8169C107.637 56.6306 107.637 53.4443 107.637 50.1614C106.795 49.9595 106.795 49.9595 105.936 49.7535C105.842 49.7086 105.749 49.6637 105.652 49.6175C105.652 49.3482 105.652 49.0789 105.652 48.8015Z" fill="#707070"/>
</svg>
